<?xml version="1.0" encoding="utf-8"?>
<!-- Generator: Adobe Illustrator 15.0.0, SVG Export Plug-In . SVG Version: 6.00 Build 0)  -->
<!DOCTYPE svg PUBLIC "-//W3C//DTD SVG 1.1//EN" "http://www.w3.org/Graphics/SVG/1.1/DTD/svg11.dtd">
<svg version="1.1" id="Layer_1" xmlns="http://www.w3.org/2000/svg" xmlns:xlink="http://www.w3.org/1999/xlink" x="0px" y="0px"
	 viewBox="0 0 299 204" enable-background="new 0 0 299 204" xml:space="preserve">
<circle fill="#2D0A05" cx="90.512" cy="102.268" r="86.84"/>
<circle fill="#FEC700" cx="90.512" cy="102.268" r="25.055"/>
<rect x="104.732" y="9.128" fill="#820000" width="186.328" height="186.328"/>
<g>
	<path fill="#FEC700" d="M118.9,57.887V46.524h-1.803v-2.016h6.8c1.04,0,1.963,0.132,2.77,0.397
		c0.806,0.266,1.556,0.685,2.249,1.257c0.87,0.714,1.543,1.597,2.021,2.647c0.478,1.051,0.716,2.181,0.716,3.39
		c0,1.358-0.265,2.583-0.796,3.676c-0.53,1.093-1.301,1.997-2.313,2.711c-0.679,0.488-1.39,0.838-2.132,1.05
		c-0.743,0.212-1.79,0.318-3.14,0.318h-6.175v-2.069H118.9z M121.096,57.887h2.716c1.719,0,3.078-0.502,4.079-1.506
		s1.501-2.362,1.501-4.074c0-1.804-0.552-3.218-1.655-4.244c-1.104-1.026-2.638-1.539-4.604-1.539h-2.037V57.887z"/>
	<path fill="#FEC700" d="M133.117,54.089c0-0.82,0.156-1.605,0.467-2.355c0.311-0.75,0.764-1.422,1.358-2.016
		c0.58-0.58,1.245-1.025,1.995-1.337c0.75-0.311,1.539-0.467,2.366-0.467c0.827,0,1.616,0.156,2.366,0.467
		c0.75,0.312,1.418,0.757,2.005,1.337c0.587,0.587,1.034,1.254,1.342,2s0.462,1.537,0.462,2.371c0,0.835-0.154,1.625-0.462,2.372
		c-0.308,0.746-0.755,1.413-1.342,2c-0.587,0.58-1.256,1.026-2.005,1.337c-0.75,0.311-1.539,0.467-2.366,0.467
		c-0.828,0-1.617-0.156-2.366-0.467s-1.415-0.757-1.995-1.337c-0.594-0.594-1.047-1.266-1.358-2.016
		C133.272,55.695,133.117,54.91,133.117,54.089z M135.324,54.089c0,1.146,0.387,2.117,1.162,2.913
		c0.774,0.795,1.713,1.193,2.817,1.193c1.096,0,2.03-0.399,2.801-1.199s1.156-1.768,1.156-2.907c0-1.139-0.385-2.107-1.156-2.907
		s-1.705-1.199-2.801-1.199c-1.104,0-2.042,0.398-2.817,1.194C135.711,51.972,135.324,52.943,135.324,54.089z"/>
	<path fill="#FEC700" d="M157.402,59.627l-3.671-9.432h-1.39v-1.995h5.188v1.995h-1.581l2.567,6.875l2.578-6.875h-1.581v-1.995
		h5.188v1.995h-1.39l-4.52,11.522h1.825v2.016h-5.708v-2.016h1.666L157.402,59.627z"/>
	<path fill="#FEC700" d="M165.402,54.089c0-0.82,0.156-1.605,0.467-2.355c0.311-0.75,0.764-1.422,1.358-2.016
		c0.58-0.58,1.245-1.025,1.995-1.337c0.75-0.311,1.539-0.467,2.366-0.467c0.827,0,1.616,0.156,2.366,0.467
		c0.75,0.312,1.418,0.757,2.005,1.337c0.587,0.587,1.034,1.254,1.342,2s0.462,1.537,0.462,2.371c0,0.835-0.154,1.625-0.462,2.372
		c-0.308,0.746-0.755,1.413-1.342,2c-0.587,0.58-1.256,1.026-2.005,1.337c-0.75,0.311-1.539,0.467-2.366,0.467
		c-0.828,0-1.617-0.156-2.366-0.467s-1.415-0.757-1.995-1.337c-0.594-0.594-1.047-1.266-1.358-2.016
		C165.558,55.695,165.402,54.91,165.402,54.089z M167.609,54.089c0,1.146,0.387,2.117,1.162,2.913
		c0.774,0.795,1.713,1.193,2.817,1.193c1.096,0,2.03-0.399,2.801-1.199s1.156-1.768,1.156-2.907c0-1.139-0.385-2.107-1.156-2.907
		s-1.705-1.199-2.801-1.199c-1.104,0-2.042,0.398-2.817,1.194C167.996,51.972,167.609,52.943,167.609,54.089z"/>
	<path fill="#FEC700" d="M188.711,58.28c-0.382,0.637-0.859,1.11-1.432,1.422c-0.573,0.311-1.255,0.467-2.048,0.467
		c-0.629,0-1.222-0.108-1.777-0.324s-1.035-0.525-1.438-0.928c-0.502-0.502-0.856-1.043-1.061-1.624
		c-0.205-0.58-0.308-1.379-0.308-2.397v-4.679h-1.698v-1.995h3.809v6.058c0,1.436,0.215,2.44,0.647,3.013
		c0.432,0.573,1.164,0.859,2.196,0.859c0.983,0,1.736-0.336,2.26-1.008s0.785-1.641,0.785-2.907v-4.021h-1.613v-1.995h3.713v9.761
		h1.634v1.973h-3.671V58.28z"/>
	<path fill="#FEC700" d="M201.506,59.956v-9.761h-1.846v-1.995h1.846v-3.692h2.111v3.692h1.708v1.995h-1.708v7.745h1.708v2.016
		H201.506z"/>
	<path fill="#FEC700" d="M208.582,57.94V46.503h-1.623v-1.995h3.734v5.283c0.383-0.601,0.855-1.048,1.418-1.342
		s1.217-0.44,1.967-0.44c0.637,0,1.236,0.108,1.799,0.324s1.045,0.525,1.447,0.928c0.496,0.502,0.848,1.043,1.057,1.623
		c0.209,0.58,0.312,1.379,0.312,2.398v4.658h1.688v2.016h-5.41V57.94h1.611v-4.042c0-1.436-0.215-2.44-0.646-3.013
		c-0.432-0.573-1.164-0.859-2.197-0.859c-0.982,0-1.736,0.336-2.26,1.008c-0.523,0.672-0.785,1.641-0.785,2.907v4h1.604v2.016
		h-5.401V57.94H208.582z"/>
	<path fill="#FEC700" d="M223.383,57.94v-7.745h-1.655v-1.995h3.756v9.74h1.612v2.016h-5.41V57.94H223.383z M223.351,47.076v-2.567
		h2.154v2.567H223.351z"/>
	<path fill="#FEC700" d="M230.311,57.94v-7.745h-1.655v-1.995h3.671v1.698c0.375-0.637,0.851-1.11,1.427-1.422
		c0.577-0.311,1.261-0.467,2.054-0.467c0.629,0,1.225,0.108,1.787,0.324s1.045,0.525,1.448,0.928
		c0.502,0.502,0.855,1.043,1.062,1.623c0.205,0.58,0.308,1.379,0.308,2.398v4.658h1.676v2.016h-5.39V57.94h1.603v-4.042
		c0-1.436-0.216-2.44-0.647-3.013c-0.432-0.573-1.164-0.859-2.196-0.859c-0.983,0-1.736,0.336-2.26,1.008
		c-0.523,0.672-0.785,1.641-0.785,2.907v4h1.612v2.016h-5.41V57.94H230.311z"/>
	<path fill="#FEC700" d="M245.11,57.94V46.503h-1.655v-1.995h3.756v9.145l3.607-3.458h-1.825v-1.995h6.196v1.995h-1.846
		l-3.607,3.458l4.382,4.287h1.506v2.016h-5.909V57.94h1.518l-4.021-4v4h1.612v2.016h-5.41V57.94H245.11z"/>
	<path fill="#FEC700" d="M121.075,80.346h1.804v2.069h-5.846v-2.069h1.804V68.983h-1.804v-2.016h5.846v2.016h-1.804V80.346z"/>
	<path fill="#FEC700" d="M125.011,72.198v-1.39c0.276-0.085,0.463-0.209,0.562-0.372c0.099-0.162,0.148-0.463,0.148-0.901h-0.711
		v-2.589h2.133v2.323c0,0.892-0.165,1.56-0.494,2.006C126.322,71.721,125.775,72.028,125.011,72.198z"/>
	<path fill="#FEC700" d="M128.905,82.415v-2.016h1.698v-7.745h-1.655V70.66h3.65v1.739c0.417-0.672,0.886-1.161,1.406-1.469
		c0.52-0.309,1.13-0.462,1.83-0.462c0.799,0,1.501,0.198,2.106,0.594c0.605,0.396,1.091,0.98,1.459,1.751
		c0.544-0.842,1.102-1.443,1.671-1.804s1.229-0.541,1.979-0.541c1.309,0,2.334,0.465,3.077,1.396
		c0.743,0.93,1.114,2.223,1.114,3.877v4.658h1.697v2.016h-5.39v-2.016h1.613v-4.042c0-1.394-0.196-2.388-0.589-2.981
		c-0.393-0.595-1.038-0.892-1.936-0.892c-0.87,0-1.537,0.336-2,1.008s-0.695,1.642-0.695,2.907v4h1.655v2.016h-5.368v-2.016h1.655
		v-4.042c0-1.394-0.196-2.388-0.588-2.981c-0.393-0.595-1.038-0.892-1.937-0.892c-0.87,0-1.537,0.336-2,1.008
		s-0.695,1.642-0.695,2.907v4h1.613v2.016H128.905z"/>
	<path fill="#FEC700" d="M156.691,78.617h2.239v0.042c0,0.608,0.187,1.107,0.562,1.496s0.856,0.583,1.443,0.583
		c0.601,0,1.077-0.139,1.427-0.419c0.35-0.279,0.525-0.659,0.525-1.141c0-0.467-0.129-0.829-0.387-1.087s-0.751-0.49-1.48-0.695
		c-0.198-0.057-0.474-0.138-0.828-0.244c-1.025-0.29-1.662-0.513-1.91-0.668c-0.509-0.325-0.886-0.706-1.13-1.141
		s-0.366-0.946-0.366-1.533c0-0.99,0.329-1.807,0.987-2.45s1.5-0.966,2.525-0.966c0.446,0,0.859,0.076,1.242,0.228
		c0.382,0.152,0.728,0.381,1.04,0.685V70.66h1.804v3.045h-2.037c-0.063-0.467-0.253-0.835-0.567-1.104
		c-0.315-0.27-0.72-0.403-1.215-0.403c-0.488,0-0.89,0.138-1.205,0.414c-0.314,0.275-0.472,0.618-0.472,1.028
		c0,0.673,0.686,1.203,2.058,1.592c0.481,0.135,0.859,0.248,1.135,0.34c1.089,0.354,1.858,0.795,2.308,1.326
		c0.449,0.53,0.673,1.248,0.673,2.153c0,1.061-0.354,1.931-1.061,2.61c-0.708,0.679-1.624,1.019-2.748,1.019
		c-0.552,0-1.038-0.084-1.459-0.25s-0.801-0.426-1.14-0.779v0.764h-1.963V78.617z"/>
	<path fill="#FEC700" d="M168.691,80.399V68.962h-1.655v-1.994h3.756v13.432h1.613v2.016h-5.411v-2.016H168.691z"/>
	<path fill="#FEC700" d="M175.619,80.399v-7.745h-1.655V70.66h3.756v9.739h1.613v2.016h-5.411v-2.016H175.619z M175.587,69.535
		v-2.567h2.154v2.567H175.587z"/>
	<path fill="#FEC700" d="M180.85,82.415v-2.016h1.698v-7.745h-1.655V70.66h3.65v1.739c0.417-0.672,0.886-1.161,1.406-1.469
		c0.52-0.309,1.13-0.462,1.83-0.462c0.799,0,1.501,0.198,2.106,0.594c0.605,0.396,1.091,0.98,1.459,1.751
		c0.544-0.842,1.102-1.443,1.671-1.804s1.229-0.541,1.979-0.541c1.309,0,2.334,0.465,3.077,1.396
		c0.743,0.93,1.114,2.223,1.114,3.877v4.658h1.697v2.016h-5.39v-2.016h1.613v-4.042c0-1.394-0.196-2.388-0.589-2.981
		c-0.393-0.595-1.038-0.892-1.936-0.892c-0.87,0-1.537,0.336-2,1.008s-0.695,1.642-0.695,2.907v4h1.655v2.016h-5.368v-2.016h1.655
		v-4.042c0-1.394-0.196-2.388-0.588-2.981c-0.393-0.595-1.038-0.892-1.937-0.892c-0.87,0-1.537,0.336-2,1.008
		s-0.695,1.642-0.695,2.907v4h1.613v2.016H180.85z"/>
	<path fill="#FEC700" d="M206.376,82.086l-3.671-9.432h-1.39V70.66h5.188v1.994h-1.581l2.567,6.875l2.578-6.875h-1.58V70.66h5.188
		v1.994h-1.391l-4.519,11.521h1.826v2.017h-5.709v-2.017h1.666L206.376,82.086z"/>
	<path fill="#FEC700" d="M217.368,78.415c0-0.735,0.125-1.439,0.376-2.111s0.625-1.309,1.12-1.909
		c0.169-0.198,0.428-0.467,0.774-0.807c0.849-0.835,1.272-1.623,1.272-2.366c0-0.742-0.235-1.344-0.705-1.804
		c-0.471-0.459-1.084-0.689-1.841-0.689c-0.693,0-1.254,0.241-1.682,0.722c-0.428,0.481-0.649,1.121-0.663,1.92l-2.101,0.011
		c0.035-1.386,0.484-2.52,1.348-3.4c0.862-0.88,1.948-1.32,3.257-1.32c1.315,0,2.415,0.432,3.3,1.294
		c0.884,0.863,1.326,1.938,1.326,3.226c0,1.195-0.615,2.433-1.847,3.713l-0.148,0.148c-0.637,0.658-1.062,1.228-1.278,1.709
		c-0.216,0.48-0.334,1.036-0.355,1.665H217.368z M217.389,82.415v-2.472h2.091v2.472H217.389z"/>
</g>
<g>
	<defs>
		<rect id="SVGID_1_" x="104.732" y="9.128" width="186.328" height="186.328"/>
	</defs>
	<clipPath id="SVGID_2_">
		<use xlink:href="#SVGID_1_"  overflow="visible"/>
	</clipPath>
	<g clip-path="url(#SVGID_2_)">
		<path fill="#2D0A05" d="M285.946,120.712c0,0,1.906-2.311-0.78-6.855c-2.312-4.31-7.08-2.725-10.053-1.01
			c1.585-4.838-8.539-33.025-37.015-22.641c-16.679,6.607-16.08,22.357-16.08,22.357s-11.642-11.772-27.439-2.888
			c-15.799,8.889-18.524,31.584-0.946,42.315c-5.127,1.078-19.25,0.82-20.762,4.022c-1.508,3.207-1.682,10.624,0.308,17.209
			c1.228,4.26,9.729,2.078,10.326-2.588c0.596-4.668,5.485-5.375,9.732-5.12c1.758,5.754,4.627,8.617,4.729,13.642
			c3.083,10.234-6.392,34.863-3.04,43.912c3.355,9.047,12.937,16.8,24.625,19.08c-1.074,5.68,0.906,11.341,3.753,13.548
			c-9.187-2.059-28.115-9.523-26.048-22.586c0.668-7.506-9.61-13.216-12.663-9.583c-3.827,3.699,6.581,11.211-3.593,12.936
			c-12.654-1.449,0.633-13.892-10.869-15.455c-8.852,0.201-14.24,21.406-8.26,31.562c5.979,10.15,20.08,12.161,25.255,11.192
			c3.019,11.598,29.238,21.965,41.359,23.113c0.201,2.854,2.624,4.712,2.624,4.712s-24.313,2.93-25.554,30.169
			c-9.425,1.912-21.729-11.964-17.096-16.553c-10.277,1.493-15.725,20.455-2.824,34.475c11.892,12.062,26.37,7.097,28.471,6.427
			c4.9,6.229,18.495,19.4,41.476,8.661c19.622-8.986,21.32-23.489,21.32-23.489s19.841,13.734,56.971-2.1
			c40.443-16.901,64.285-76.242,19.945-96.538c3.389-3.546,2.821-12.053-0.81-13.65c7.07-3.143,14.164-14.766,13.326-25.191
			c10.616,23.891,31.685,69.999,31.685,69.999l12.329-5.772c0,0-27.543-58.697-31.957-69.292
			c8.506-3.196,19.911-33.366-14.379-43.526l-2.062-4.634l0.839-10.592l-7.933-17.2l-20.802-2.14l-9.453,18.797l5.47,10.993
			l10.504,10.513l2.009,3.198c0,0-3.983,3.518-2.654,11.106c1.326,7.579,2.897,7.176,2.897,7.176s2.573,14.328-4.878,23.185
			c0.568-4.63-2.629-7.881-2.629-7.881s5.609-10.369-0.918-24.406c-8.556-19.255-35.59-18.335-41.87-27.225
			C293.262,127.889,287.594,121.235,285.946,120.712z"/>
		<path fill="#2D0A05" d="M277.744,122.526l-25.542,12.807c0,0,4.708,22.428,22.993,14.304S277.744,122.526,277.744,122.526z"/>
		<path fill="#FFFFFF" d="M266.923,127.948l8.003,1.378l-7.229,1.458l9.72,1.519l-8.832,2.463l12.059,2.823l-5.335,1.786
			l8.302,1.649c-0.095,0.323-0.188,0.648-0.312,0.967l-18.396,2.88l5.419-3.574l-11.161-1.465l6.423-1.975l-9.209-2.334l4.357-1.353
			l-3.766-1.228L266.923,127.948z"/>
		<path fill="#2D0A05" d="M225.465,145.466l-25.546,12.805c0,0,4.713,22.429,22.996,14.305
			C241.201,164.451,225.465,145.466,225.465,145.466z"/>
		<path fill="#FFFFFF" d="M214.646,150.891l8,1.37l-7.231,1.463l9.721,1.518l-8.83,2.461l12.057,2.823l-5.337,1.785l8.301,1.654
			c-0.088,0.329-0.187,0.645-0.307,0.965l-18.396,2.882l5.417-3.577l-11.163-1.468l6.423-1.976l-9.208-2.331l4.36-1.352
			l-3.765-1.226L214.646,150.891z"/>
		<path fill="#FFFFFF" d="M189.999,155.018c0,0-14.512,0.674-15.462,1.969c-0.95,1.297-1.407,10.318-0.376,12.153
			c-0.282-2.601,0.192-10.109,1.134-11.182c-0.244,1.416-0.111,2.451-0.111,2.451l0.544-1.23l0.639,0.703l-0.154-1.568l2.223,0.099
			l-1.655-0.789l1.404-0.517l-1.463-0.105C176.721,157.001,186.381,155.212,189.999,155.018z"/>
		<path fill="#FFFFFF" d="M240.798,142.364c-0.025,0.311-2.981-7.939-7.24-7.462c-4.255,0.471-5.051,3.335-3.193,6.536
			c1.861,3.204,4.528,2.349,7.064,5.357c2.537,3.017,2.266,5.096,4.092,5.044c1.834-0.046,0.596-6.254-2.565-8.226
			c2.812-0.05,4.438,3.365,4.974,5.305c0.856,1.687,2.769-0.14,2.412-3.146c-0.354-2.996,0.094-11.799-4.36-13.742
			c-4.126-1.437-3.761,2.328-3.761,2.328S241.15,137.516,240.798,142.364z"/>
		<polygon fill="#E80000" points="350.237,115.935 336.671,115.041 330.672,126.891 339.913,126.246 		"/>
		<polygon fill="#E80000" points="352.057,118.081 352.602,127.891 347.49,123.398 		"/>
		<polygon fill="#820000" points="354.646,120.394 357.523,128.822 354.242,132.359 348.198,135.913 345.283,125.075 
			353.774,130.137 		"/>
		<polygon fill="#820000" points="345.366,137.342 341.735,128.391 338.079,136.938 329.258,129.943 333.223,139.27 
			338.966,139.323 		"/>
		<polygon fill="#E80000" points="339.434,129.062 337.135,134.417 331.619,129.412 		"/>
		<path fill="#D0C200" d="M357.957,133.309l-7.01,6.062l2.409,1.521c0,0,2.538,15.863,2.058,15.557s-8.874-12.176-8.874-12.176
			l0.242-3.748l-9.986,1.319l6.819,5.983l3.932,5.352c0,0,5.601,1.674,7.69,8.718c4.1,0.261,8.702-4.211,6.484-9.984
			c-2.22-5.771-4.458-9.636-4.458-9.636L357.957,133.309z"/>
		<path fill="#FEC700" d="M261.306,96.075c-11.378-7.351-22.886-2.236-28.312,4.158c-6.052,6.363-11.142,19.038-1.492,27.308
			c-2.319-0.044-2.433-0.299-4.233-1.946c0.365,2.894-1.539,3.436-1.539,3.436s0.627-8.242-7.354-13.114
			c-7.984-4.873-27.306-5.628-31.798,14.589c-1.76,15.331,11.307,19.931,11.307,19.931l28.729-13.22c0,0-0.558-5.728,8.949-3.977
			c2.271-3.158,3.494-3.855,5.553-3.692c2.061,0.149,2.061,0.149,2.061,0.149l27.28-14.41
			C270.456,115.286,272.685,103.424,261.306,96.075z"/>
		<path fill="#E88B00" d="M192.702,144.968c-4.996-6.869-5.581-25.229,10.828-27.757c17.3-2.492,21.616,11.606,21.778,15.871
			c2.611-0.94,3.874-5.411,3.874-5.411s2.213,2.055,5.988,0.809c-6.807-3.548-6.725-19.522,0.482-26.191
			c7.21-6.669,21.614-5.926,26.897,2.554c5.282,8.475,0.469,14.37,0.466,14.371l-19.84,10.483c0,0,0,0-2.061-0.149
			c-2.059-0.163-3.281,0.534-5.553,3.692c-9.507-1.751-8.949,3.977-8.949,3.977l-27.952,12.868
			C196.869,149.28,194.752,147.78,192.702,144.968z"/>
		<path fill="#2D0A05" d="M200.932,120.604c7.806-3.469,16.84-0.182,20.182,7.337c1.724,3.883,1.582,8.131-0.017,11.811
			l-19.061,8.777c-3.981-1.22-7.396-4.014-9.181-8.032C189.515,132.979,193.131,124.07,200.932,120.604z"/>
		<path fill="#FFFFFF" d="M195.471,140.869c-2.589-5.825,0.463-12.84,6.819-15.663c6.355-2.826,13.606-0.391,16.197,5.437
			c1.583,3.564,1.044,7.577-1.064,10.801l-12.877,5.93C200.595,146.866,197.104,144.543,195.471,140.869z"/>
		<path fill="#2D0A05" d="M200.764,126.019c0.487-0.297,0.987-0.573,1.527-0.812c0.964-0.429,1.948-0.719,2.935-0.916
			c1.859,0.168,4.155,0.933,6.101,3.334c-4.261,1.435-3.208,8.62,1.562,8.337c1.436,2.884-1.491,8.016-1.491,8.016
			s-5.072,1.329-10.939-6.013C197.327,133.729,198.778,128.784,200.764,126.019z"/>
		<path fill="#2D0A05" d="M242.032,102.494c7.808-3.468,16.843-0.185,20.185,7.341c1.357,3.052,1.55,6.329,0.799,9.378
			l-19.84,10.483c0,0,0,0-2.061-0.149c-0.076-0.012-0.149-0.005-0.23-0.011c-2.991-1.462-5.487-3.912-6.927-7.146
			C230.616,114.866,234.233,105.961,242.032,102.494z"/>
		<path fill="#FFFFFF" d="M243.394,107.1c6.355-2.826,13.604-0.392,16.191,5.43c1.217,2.733,1.175,5.721,0.154,8.415l-15.326,8.1
			c-3.432-0.791-6.383-2.998-7.844-6.287C233.981,116.934,237.035,109.924,243.394,107.1z"/>
		<path fill="#2D0A05" d="M246.327,106.182c1.859,0.163,4.146,0.927,6.1,3.332c-4.263,1.437-3.211,8.619,1.564,8.335
			c0.948,1.915-0.017,4.812-0.772,6.548l-2.799,1.472c-2.018-0.288-5.287-1.541-8.861-6.013c-3.135-4.238-1.678-9.18,0.305-11.947
			c0.487-0.295,0.988-0.57,1.53-0.809C244.358,106.671,245.343,106.379,246.327,106.182z"/>
		<polygon fill="#FFFFFF" points="245.232,111.014 244.017,109.3 244.365,111.1 244.032,110.951 242.679,110.345 242.293,112.175 
			244.132,112.255 242.941,113.984 244.746,113.637 245.416,115.144 245.44,113.174 246.835,113.607 245.856,112.087 
			247.223,110.428 246.055,110.503 245.873,109.078 		"/>
		<polygon fill="#FFFFFF" points="203.362,130.071 202.147,128.356 202.496,130.16 202.165,130.005 200.811,129.399 
			200.417,131.225 202.259,131.313 201.075,133.042 202.872,132.694 203.542,134.197 203.57,132.232 204.963,132.667 
			203.989,131.146 205.356,129.483 204.185,129.552 204.002,128.137 		"/>
		<path fill="#FFFFFF" d="M278.927,156.129c0.371-0.15-5.165,3.82-14.714,1.96c-6.249-1.801-9.951-6.695-9.951-6.695
			s7.4,6.845,12.127,5.944c-0.549-1.715,2.273-1.012,2.056-0.037c2.219,0.097,7.064-1.506,9.454-3.982
			c-1.134,2.355-5.759,3.973-5.759,3.973S274.568,157.85,278.927,156.129z"/>
		<path fill="#FFFFFF" d="M229.33,179.541c-0.353,0.195,6.231-1.562,10.859-10.111c2.58-5.969,1.151-11.941,1.151-11.941
			s0.586,10.068-3.106,13.142c-0.984-1.515-2.23,1.121-1.338,1.563c-1.334,1.782-5.655,4.498-9.082,4.767
			c2.537,0.625,6.723-1.917,6.723-1.917S233.423,177.269,229.33,179.541z"/>
		<path fill="#FEC700" d="M291.203,145.15c0,0-2.023,8.419-13.52,13.025c-18.22,8.096-22.383-8.608-28.624-6.844
			c-3.652,1.372-6.862,2.051-6.165,7.003c0,0,5.491,14.616-15.175,24.553c-13.799,5.629-20.522-2.162-20.522-2.162
			s-5.261,21.981-5.957,33.849c-1.766,9.952,15.559,32.35,41.135,24.998c-5.05,7.263-12.988,5.772-14.824,5.582
			c-1.629,4.241,3.301,15.339,14.101,14.809c-11.913,4.791-31.369,1.649-43.771-12.154c-7.355-5.266-1.999-19.173-9.028-20.32
			c-3.956-1.002,5.68,12.781-6.281,14.085c-15.873,1.53-8.562-17.014-14.313-14.71c-5.748,2.303-6.958,42.472,32.923,31.764
			c-1.862,4.841-5.139,4.8-5.139,4.8s14.031,18.588,31.179,15.983c-1.023-2.3,1.911-5.862,1.911-5.862s7.113,28.433,35.556,23.58
			c-0.604,6.534-13.616,8.3-29.162,0.409c-13.706-5.445-29.898,19.063-27.133,30.369c-8.539,0.532-20.269-5.542-21.248-11.133
			c-9.635,6.543,4.749,37.778,36.279,21.257c0,0,0.209,2.166-3.959,5.769c8.634,8.701,16.221,13.354,34.208,5.864
			c17.989-7.489,20.182-26.264,18.871-31.457c2.612,1.351,3.333,3.537,3.333,3.537s23.061,16.343,59.242-3.251
			c41.356-20.387,43.107-70.064,14.717-79.774c-2.026,3.909-4.797,3.888-4.797,3.888s8.033-14.098,1.469-23.224
			c-1.345,2.607-6.725,1.235-6.725,1.235s25.676-16.17,18.109-37.137c4.421-0.214,8.351,5.812,8.351,5.812
			s16.128-0.391,15.104-20.756c-0.367-12.121-13.143-15.475-13.143-15.475s2.393,12.73-13.707,14.871
			c-1.233,4.557-4.003,4.538-4.003,4.538s3.397-9.288-0.091-13.751c-3.49-4.472-7.192,0.179-6.427,5.863
			c0.771,5.673,7.587,13.68,11.309,15.286c-3.721,0.648-6.678-2.048-6.678-2.048s-0.562,14.541-10.428,23.94
			c-1.484,5.685-3.904,7.011-3.904,7.011s2.253-9.029-3.237-14.62c-5.096,8.285-15.545,10.172-15.545,10.172
			s22.244-15.406,12.823-36.048C318.895,147.636,291.203,145.15,291.203,145.15z"/>
		<g>
			<path fill="#E88B00" d="M257.078,252.125c-3.811,5.426-10.465,7.5-16.136,8.101c0.233-0.089,0.477-0.174,0.71-0.263
				c-10.8,0.53-15.729-10.567-14.101-14.809c1.836,0.19,9.774,1.681,14.824-5.582c0.614,4.912-7.599,9.893-7.599,9.893
				S243.758,258.842,257.078,252.125z"/>
			<path fill="#E88B00" d="M201.241,214.574c0.695-11.867,5.957-33.849,5.957-33.849s6.724,7.791,20.522,2.162
				c20.666-9.937,15.175-24.553,15.175-24.553c-0.697-4.952,2.513-5.631,6.165-7.003c6.241-1.765,10.404,14.939,28.624,6.844
				c11.496-4.606,13.52-13.025,13.52-13.025s27.691,2.485,37.115,23.127c8.044,17.619-6.97,31.409-11.55,35.078
				c2.23-2.915,13.136-18.228,6.631-31.234c-7.218-14.44-18.355-19.649-28.503-20.221c-4.068,5.283-16.026,15.679-25.925,14.461
				c-10.716-0.051-16.62-7.323-20.197,3.893c-3.574,11.215-12.802,16.916-22.5,18.558c-9.7,1.634-16.174-0.302-16.174-0.302
				s-8.608,25.754-1.069,35.502c7.54,9.749,24.021,16.935,33.345,15.561C216.8,246.924,199.475,224.526,201.241,214.574z"/>
			<path fill="#E88B00" d="M316.618,204.062c2.825-0.745,10.333-3.267,14.422-9.908c5.49,5.591,3.237,14.62,3.237,14.62
				c-4.308,6.414-13.113,7.655-13.113,7.655s10.27-6.974,8.71-13.494C325.876,207.295,318.882,206.008,316.618,204.062z"/>
		</g>
		<path fill="#2D0A05" d="M311.49,166.426c0,0-12.138-13.295-23.879-6.186c-11.742,7.114-9.706,20.837-31.048,29.506
			c-21.341,8.673-36.521-3.546-43.812,8.09c-7.288,11.641,0.955,35.07,27.317,35.271c30.771,0.954,61.058-9.524,72.197-37.495
			C319.407,175.097,311.49,166.426,311.49,166.426z"/>
		<path fill="#FFFFFF" d="M308.375,174.043c0,0-4.575-11.508-16.643-6.961c5.677,11.557,14.073,29.231,14.073,29.231
			S312.219,186.964,308.375,174.043z"/>
		<path fill="#FFFFFF" d="M302.28,201.238c-2.508-6.743-14.127-25.157-16.018-29.965c-1.047,3.173-13.837,15.764-13.837,15.764
			l13.094,28.854C285.52,215.892,300.158,208.074,302.28,201.238z"/>
		<path fill="#FFFFFF" d="M279.739,218.732l-11.787-28.357c0,0-11.894,7.991-17.998,8.273c4.271,8.392,11.863,26.696,11.863,26.696
			S273.401,223.988,279.739,218.732z"/>
		<path fill="#FFFFFF" d="M256.237,226.196l-10.935-25.215c0,0-11.761,0.355-15.886-1.609c3.672,9.478,11.186,26.997,11.186,26.997
			S248.344,229.162,256.237,226.196z"/>
		<path fill="#FFFFFF" d="M235.501,226.474l-10.858-26.876c0,0-10.658,0.407-7.342,10.309
			C220.618,219.809,228.709,224.612,235.501,226.474z"/>
		<path fill="#2D0A05" d="M336.317,239.375c0,0,1.833,8.394-9.101,12.438C335.407,254.405,344.307,246.387,336.317,239.375z"/>
		<path fill="#2D0A05" d="M276.892,278.78c0,0-7.663,5.306-15.206,0.53C263.747,285.169,272.266,290.323,276.892,278.78z"/>
		<path fill="#FFFFFF" d="M217.064,334.354c0,0-4.729,3.995-12.342,0.882c1.455-2.818-3.694-6.487-5.729-3.146
			c-4.729,1.561-10.007-9.1-10.007-9.1s-0.599,10.838,10.031,15.862C209.648,343.881,216.938,337.119,217.064,334.354z"/>
		<path fill="#E88B00" d="M254.242,306.455c0,0-3.57,0.504-9.524-2.538c-5.957-3.044-31.571-0.327-29.237,21.385
			c3.719-8.694,11.815-11.207,11.815-11.207s10.782,4.15,10.105-5.305C243.386,303.972,252.152,313.345,254.242,306.455z"/>
		<path fill="#E88B00" d="M266.888,323.325c0,0,3.541,14.683-15.085,22.145c-13.877,5.351-22.298-2.017-22.298-2.017
			s11.438,1.962,15.714-1.83c1.933-6.011,6.66-7.566,10.758-5.053C263.164,336.896,266.888,323.325,266.888,323.325z"/>
		<path fill="#E88B00" d="M348.556,245.584c-0.723-0.152,15.533,21.546-2.21,46.229c-5.457-4.352-12.495,1.755-11.016,8.134
			c-7.364,10.863-34.962,20.693-51.255,18.173c8.299,7.695,47.309,5.259,66.667-20.679
			C370.099,271.498,361.075,248.144,348.556,245.584z"/>
		<path fill="#E88B00" d="M306.309,214.512c0,0,3.128,18.407-21.067,30.521c4.749,1.828,12.52-4.526,12.52-4.526
			s-3.967,7.226-17.877,11.697c-7.932,3.698-15.896,1.938-19.61,0.506c7.871,0.781,14.263-1.374,18.025-5.611
			c0,0-23.204,4.541-27.745-8.082c5.803,2.954,19.559,3.511,33.964-4.083C298.92,227.334,305.079,220.396,306.309,214.512z"/>
		<path fill="#2D0A05" d="M306.309,214.512c0,0-13.881,27.293-55.755,24.505c6.333,9.373,30.366,2.49,35.815-0.481
			C291.825,235.573,305.249,230.423,306.309,214.512z"/>
		<path fill="#FFFFFF" d="M370.998,155.985c0,0,10.201,5.124,8.26,17.75c-2.346,10.328-9.425,13.347-11.217,13.772
			c3.389-2.126,9.572-8.831,9.399-13.963c-1.344,1.717-2.368,3.039-2.368,3.039l1.874-4.421l-3.436,0.905l2.618-1.905l-4.271-1.817
			l4.777,0.725l-2.28-3.193l3.543,2.131C377.897,169.008,377.233,161.385,370.998,155.985z"/>
		<path fill="#FFFFFF" d="M167.527,231.66c0,0-2.63,13.305,7.444,23.438c7.707,7.598,25.262,2.517,25.262,2.517
			s-11.763,2.507-18.979-0.358c3.803-0.074,5.205-0.822,5.205-0.822l-7.468-0.648l4.388-1.822l-4.535,0.648l2.493-3.578
			l-3.045,2.336l-0.252-4.462l-0.654,3.261l-3.069-4.95l0.701,5.755C175.017,252.973,168.295,247.046,167.527,231.66z"/>
		<polygon fill="#E80000" points="332.646,115.119 328.399,112.175 329.28,115.81 325.1,116.324 329.058,117.517 323,122.616 
			329.028,120.21 330.002,124.602 331.061,120.917 333.968,125.259 333.814,119.959 338.606,119.17 333.939,118.028 340.69,114.493 
			335.588,115.685 336.961,111.056 		"/>
		<path fill="#E88B00" d="M326.47,292.997c0,0-1.855,0.836-1.603,2.07c0.252,1.231-0.451,4.396-2.229,4.509
			c-1.776,0.103-3.518-2.113-4.672-0.528c-1.419-2.861,0.226-5.191,1.631-5.542C321.003,293.156,325.094,291.739,326.47,292.997z"/>
		<path fill="#2D0A05" d="M326.764,293.466c0,0-3.245-4.244-7.995-2.132c-4.75,2.111-1.687,7.788-1.687,7.788
			s0.481-3.193,1.486-3.366c1.531,2.836,5.227-0.425,3.747-1.936C324.373,292.363,326.764,293.466,326.764,293.466z"/>
		<polygon fill="#FFFFFF" points="370.282,195.405 399.189,259.538 386.612,227.562 392.695,238.944 382.353,212.913 
			385.44,223.996 378.203,206.788 380.456,214.162 		"/>
		<polygon fill="#FFFFFF" points="334.316,116.441 330.602,113.915 331.353,117.062 327.674,117.537 331.146,118.544 
			325.79,123.019 331.106,120.886 331.937,124.693 332.883,121.487 335.417,125.236 335.318,120.635 339.537,119.923 
			335.437,118.961 341.393,115.847 336.903,116.921 338.139,112.887 		"/>
	</g>
</g>
<circle fill="#2D0A05" cx="90.512" cy="102.268" r="3.448"/>
<g>
	<path fill="#E80000" d="M120.693,38.886v0.624h-3.755v-6.33h4.406c0.097,0.929,0.298,1.604,0.604,2.024
		c0.305,0.42,0.745,0.63,1.32,0.63c0.54,0,0.993-0.17,1.36-0.511c0.367-0.34,0.551-0.767,0.551-1.28c0-0.31-0.076-0.6-0.226-0.869
		c-0.15-0.27-0.358-0.484-0.624-0.644c-0.363-0.221-0.92-0.469-1.672-0.743c-0.752-0.274-1.274-0.473-1.566-0.597
		c-1.398-0.592-2.444-1.34-3.139-2.243c-0.695-0.902-1.042-1.955-1.042-3.158c0-1.681,0.573-3.09,1.719-4.227
		c1.146-1.137,2.568-1.705,4.267-1.705c0.566,0,1.095,0.084,1.586,0.252c0.491,0.168,0.966,0.429,1.426,0.783v-0.544h3.557v5.521
		h-4.021c-0.106-0.655-0.321-1.159-0.644-1.513c-0.323-0.354-0.732-0.531-1.228-0.531c-0.469,0-0.863,0.151-1.181,0.451
		c-0.318,0.301-0.478,0.668-0.478,1.102c0,0.345,0.073,0.65,0.219,0.916c0.146,0.265,0.352,0.469,0.617,0.61
		c0.389,0.195,1.017,0.44,1.884,0.736s1.508,0.555,1.924,0.776c1.186,0.628,2.07,1.374,2.654,2.236
		c0.584,0.862,0.876,1.847,0.876,2.953c0,1.734-0.602,3.225-1.805,4.472s-2.641,1.871-4.313,1.871c-0.557,0-1.106-0.088-1.646-0.265
		C121.786,39.505,121.242,39.24,120.693,38.886z"/>
	<path fill="#E80000" d="M138.755,35.595h3.238v-2.256h4.247v6.224h-14.106v-3.968h1.871V24.208h-1.871V20.24h8.374v3.968h-1.751
		V35.595z"/>
	<path fill="#E80000" d="M158.475,24.208h-1.288V20.24h7.591v3.968h-1.579v8.174c0,2.433-0.622,4.302-1.865,5.607
		c-1.243,1.305-3.023,1.958-5.341,1.958c-1.31,0-2.473-0.25-3.49-0.75c-1.018-0.5-1.845-1.232-2.481-2.196
		c-0.372-0.522-0.637-1.135-0.796-1.838c-0.159-0.703-0.239-1.63-0.239-2.78v-8.174h-1.579V20.24h7.578v3.968h-1.248v7.989
		c0,1.132,0.186,1.964,0.557,2.495c0.372,0.531,0.947,0.796,1.726,0.796c0.831,0,1.448-0.27,1.851-0.81
		c0.402-0.54,0.604-1.367,0.604-2.481V24.208z"/>
	<path fill="#E80000" d="M186.171,28.773v10.789h-3.703v-2.124c-0.743,0.858-1.582,1.486-2.515,1.885
		c-0.934,0.398-2.033,0.597-3.298,0.597c-1.424,0-2.738-0.257-3.941-0.77c-1.203-0.513-2.283-1.274-3.238-2.282
		c-0.911-0.964-1.597-2.046-2.057-3.245c-0.46-1.199-0.69-2.506-0.69-3.922c0-1.335,0.252-2.601,0.756-3.795
		c0.504-1.194,1.234-2.26,2.189-3.198c0.956-0.929,2.024-1.632,3.205-2.11s2.448-0.717,3.802-0.717c1.168,0,2.199,0.168,3.092,0.504
		c0.894,0.336,1.694,0.858,2.402,1.566V20.24h3.53v6.383h-4.923c-0.478-0.717-1.051-1.263-1.719-1.639
		c-0.668-0.375-1.409-0.564-2.223-0.564c-1.478,0-2.721,0.511-3.729,1.533c-1.008,1.022-1.513,2.281-1.513,3.776
		c0,1.539,0.502,2.862,1.506,3.968c1.004,1.106,2.188,1.659,3.55,1.659c0.911,0,1.745-0.239,2.501-0.716
		c0.756-0.478,1.365-1.146,1.825-2.004h-5.521v-3.862H186.171z"/>
	<path fill="#E80000" d="M207.669,28.773v10.789h-3.703v-2.124c-0.743,0.858-1.582,1.486-2.515,1.885
		c-0.934,0.398-2.033,0.597-3.298,0.597c-1.424,0-2.738-0.257-3.941-0.77c-1.203-0.513-2.283-1.274-3.238-2.282
		c-0.911-0.964-1.597-2.046-2.057-3.245c-0.46-1.199-0.69-2.506-0.69-3.922c0-1.335,0.252-2.601,0.756-3.795
		c0.504-1.194,1.234-2.26,2.189-3.198c0.956-0.929,2.024-1.632,3.205-2.11s2.448-0.717,3.802-0.717c1.168,0,2.199,0.168,3.092,0.504
		c0.894,0.336,1.694,0.858,2.402,1.566V20.24h3.53v6.383h-4.923c-0.478-0.717-1.051-1.263-1.719-1.639
		c-0.668-0.375-1.409-0.564-2.223-0.564c-1.478,0-2.721,0.511-3.729,1.533c-1.008,1.022-1.513,2.281-1.513,3.776
		c0,1.539,0.502,2.862,1.506,3.968c1.004,1.106,2.188,1.659,3.55,1.659c0.911,0,1.745-0.239,2.501-0.716
		c0.756-0.478,1.365-1.146,1.825-2.004h-5.521v-3.862H207.669z"/>
	<path fill="#E80000" d="M216.72,35.568h1.766v3.995h-8.4v-3.995h1.897V24.208h-1.897V20.24h8.4v3.968h-1.766V35.568z"/>
	<path fill="#E80000" d="M230.521,35.595v-2.229h4.246v6.197h-14.106v-3.968h1.871V24.208h-1.871V20.24h14.106v6.198h-4.246v-2.229
		h-3.238v3.424h4.273v4.299h-4.273v3.663H230.521z"/>
</g>
</svg>
