<?xml version="1.0" encoding="utf-8"?>
<!-- Generator: Adobe Illustrator 15.0.0, SVG Export Plug-In . SVG Version: 6.00 Build 0)  -->
<!DOCTYPE svg PUBLIC "-//W3C//DTD SVG 1.1//EN" "http://www.w3.org/Graphics/SVG/1.1/DTD/svg11.dtd">
<svg version="1.1" id="Layer_1" xmlns="http://www.w3.org/2000/svg" xmlns:xlink="http://www.w3.org/1999/xlink" x="0px" y="0px"
	 viewBox="0 0 320 132.112" enable-background="new 0 0 320 132.112" xml:space="preserve">
<rect x="94.264" y="8.006" fill="#2D0A05" width="219.87" height="82.659"/>
<g>
	<path fill="#E88B00" d="M144.906,27.96h3.023c0.02,0.399,0.138,0.704,0.354,0.913c0.216,0.209,0.527,0.314,0.933,0.314
		c0.386,0,0.68-0.085,0.883-0.254c0.203-0.17,0.304-0.414,0.304-0.733c0-0.459-0.502-0.808-1.506-1.048
		c-0.393-0.093-0.702-0.173-0.928-0.239c-1.058-0.299-1.836-0.73-2.334-1.292c-0.499-0.562-0.749-1.289-0.749-2.18
		c0-1.058,0.356-1.911,1.068-2.559c0.711-0.648,1.649-0.973,2.813-0.973c0.465,0,0.883,0.057,1.252,0.169
		c0.369,0.113,0.72,0.296,1.052,0.549v-0.469h2.334v3.182h-2.963c-0.06-0.366-0.169-0.626-0.329-0.783s-0.396-0.235-0.708-0.235
		c-0.319,0-0.577,0.079-0.773,0.235c-0.196,0.156-0.294,0.357-0.294,0.604c0,0.312,0.11,0.555,0.329,0.728
		c0.22,0.173,0.751,0.366,1.596,0.579c1.397,0.359,2.358,0.802,2.883,1.327s0.788,1.267,0.788,2.225
		c0,1.091-0.381,1.977-1.142,2.659c-0.762,0.682-1.748,1.023-2.958,1.023c-0.492,0-0.939-0.07-1.342-0.21
		c-0.403-0.14-0.78-0.355-1.132-0.648v0.569h-2.455V27.96z"/>
	<path fill="#E88B00" d="M156.798,28.449v-5.308h-1.367v-2.943h4.25v1.676c0.399-0.639,0.868-1.116,1.407-1.432
		s1.156-0.474,1.855-0.474c0.686,0,1.277,0.176,1.781,0.529c0.502,0.353,0.895,0.872,1.182,1.557
		c0.459-0.705,0.955-1.222,1.486-1.551c0.531-0.33,1.141-0.494,1.826-0.494c1.143,0,2.021,0.371,2.633,1.112
		c0.613,0.742,0.918,1.801,0.918,3.178v4.15h1.438v2.963h-4.6v-6.166c0-0.845-0.121-1.441-0.363-1.791
		c-0.244-0.349-0.648-0.523-1.213-0.523c-0.525,0-0.947,0.208-1.262,0.624c-0.316,0.416-0.475,0.979-0.475,1.691v3.203h1.438v2.963
		h-4.5v-6.166c0-0.832-0.125-1.425-0.375-1.781c-0.248-0.356-0.656-0.534-1.221-0.534c-0.525,0-0.943,0.206-1.252,0.619
		c-0.311,0.412-0.465,0.978-0.465,1.696v3.203h1.287v2.963h-5.836v-2.963H156.798z"/>
	<path fill="#E88B00" d="M186.729,28.08c-0.492,1.137-1.226,2.022-2.2,2.654s-2.087,0.948-3.337,0.948
		c-0.871,0-1.656-0.14-2.354-0.419c-0.698-0.28-1.337-0.705-1.916-1.277c-0.564-0.559-0.992-1.19-1.281-1.896
		c-0.29-0.705-0.435-1.47-0.435-2.294c0-0.818,0.146-1.583,0.439-2.295c0.292-0.711,0.718-1.343,1.276-1.896
		c0.565-0.552,1.216-0.976,1.951-1.272c0.734-0.296,1.508-0.444,2.319-0.444c1.024,0,1.977,0.229,2.858,0.688
		c0.881,0.459,1.598,1.101,2.149,1.925c0.326,0.472,0.567,0.981,0.724,1.526c0.156,0.545,0.234,1.134,0.234,1.766
		c0,0.186-0.008,0.384-0.024,0.593c-0.017,0.21-0.042,0.434-0.075,0.674h-8.271c0.133,0.499,0.419,0.899,0.857,1.202
		c0.439,0.303,0.955,0.454,1.547,0.454c0.319,0,0.615-0.051,0.888-0.154s0.535-0.265,0.788-0.484H186.729z M178.707,24.668h4.998
		c-0.159-0.612-0.455-1.081-0.888-1.407c-0.433-0.326-0.975-0.489-1.626-0.489c-0.599,0-1.117,0.166-1.557,0.499
		C179.196,23.604,178.887,24.069,178.707,24.668z"/>
	<path fill="#E88B00" d="M189.861,28.449v-8.62h-1.367v-2.943h4.53v11.563h1.416v2.963h-5.985v-2.963H189.861z"/>
	<path fill="#E88B00" d="M197.074,28.449v-8.62h-1.367v-2.943h4.53v11.563h1.416v2.963h-5.985v-2.963H197.074z"/>
	<path fill="#E88B00" d="M203,27.96h3.023c0.02,0.399,0.138,0.704,0.354,0.913c0.217,0.209,0.527,0.314,0.933,0.314
		c0.386,0,0.681-0.085,0.884-0.254c0.202-0.17,0.304-0.414,0.304-0.733c0-0.459-0.502-0.808-1.506-1.048
		c-0.393-0.093-0.702-0.173-0.929-0.239c-1.057-0.299-1.835-0.73-2.334-1.292s-0.748-1.289-0.748-2.18
		c0-1.058,0.355-1.911,1.067-2.559s1.649-0.973,2.813-0.973c0.465,0,0.883,0.057,1.252,0.169c0.369,0.113,0.72,0.296,1.053,0.549
		v-0.469h2.334v3.182h-2.963c-0.06-0.366-0.17-0.626-0.329-0.783c-0.16-0.156-0.396-0.235-0.708-0.235
		c-0.319,0-0.577,0.079-0.773,0.235s-0.295,0.357-0.295,0.604c0,0.312,0.11,0.555,0.33,0.728c0.219,0.173,0.751,0.366,1.596,0.579
		c1.396,0.359,2.358,0.802,2.884,1.327s0.788,1.267,0.788,2.225c0,1.091-0.381,1.977-1.143,2.659
		c-0.762,0.682-1.748,1.023-2.958,1.023c-0.492,0-0.939-0.07-1.342-0.21c-0.402-0.14-0.78-0.355-1.133-0.648v0.569H203V27.96z"/>
	<path fill="#E88B00" d="M220.998,28.449v-8.62h-1.367v-2.943h4.53v11.563h1.416v2.963h-5.985v-2.963H220.998z"/>
	<path fill="#E88B00" d="M228.211,28.449v-5.308h-1.367v-2.943h4.53v8.251h1.416v2.963h-5.985v-2.963H228.211z M228.211,19.58
		v-2.694h3.163v2.694H228.211z"/>
	<path fill="#E88B00" d="M235.384,28.449v-8.62h-1.366v-2.943h4.509v8.46l2.314-2.394h-1.267v-2.754h5.717v2.943h-1.207
		l-2.285,2.404l2.245,2.903h1.596v2.963h-3.162l-3.951-5.028v5.028h-4.569v-2.963H235.384z"/>
	<path fill="#E88B00" d="M258.2,28.08c-0.492,1.137-1.226,2.022-2.2,2.654s-2.087,0.948-3.337,0.948
		c-0.871,0-1.656-0.14-2.354-0.419c-0.698-0.28-1.337-0.705-1.916-1.277c-0.564-0.559-0.992-1.19-1.281-1.896
		c-0.29-0.705-0.435-1.47-0.435-2.294c0-0.818,0.146-1.583,0.439-2.295c0.292-0.711,0.718-1.343,1.276-1.896
		c0.565-0.552,1.216-0.976,1.951-1.272c0.734-0.296,1.508-0.444,2.319-0.444c1.024,0,1.977,0.229,2.858,0.688
		c0.881,0.459,1.598,1.101,2.149,1.925c0.326,0.472,0.567,0.981,0.724,1.526c0.156,0.545,0.234,1.134,0.234,1.766
		c0,0.186-0.008,0.384-0.024,0.593c-0.017,0.21-0.042,0.434-0.075,0.674h-8.271c0.133,0.499,0.419,0.899,0.857,1.202
		c0.439,0.303,0.955,0.454,1.547,0.454c0.319,0,0.615-0.051,0.888-0.154s0.535-0.265,0.788-0.484H258.2z M250.179,24.668h4.998
		c-0.159-0.612-0.455-1.081-0.888-1.407c-0.433-0.326-0.975-0.489-1.626-0.489c-0.599,0-1.117,0.166-1.557,0.499
		C250.668,23.604,250.358,24.069,250.179,24.668z"/>
	<path fill="#E88B00" d="M263.907,31.412h-3.312V28.06h3.312V31.412z"/>
	<path fill="#E88B00" d="M269.973,31.412h-3.312V28.06h3.312V31.412z"/>
	<path fill="#E88B00" d="M276.038,31.412h-3.312V28.06h3.312V31.412z"/>
</g>
<g>
	<path fill="#820000" d="M151.456,98.927v2.38h-1.374c-0.149-0.43-0.35-0.75-0.602-0.96s-0.562-0.315-0.93-0.315
		c-0.417,0-0.754,0.12-1.012,0.361c-0.259,0.241-0.388,0.555-0.388,0.94c0,0.372,0.109,0.661,0.329,0.867s0.644,0.391,1.275,0.553
		c0.074,0.018,0.19,0.046,0.348,0.085c0.881,0.211,1.523,0.491,1.926,0.842c0.293,0.254,0.513,0.552,0.657,0.894
		s0.217,0.734,0.217,1.177c0,0.421-0.084,0.818-0.253,1.193c-0.169,0.375-0.409,0.695-0.72,0.963c-0.29,0.25-0.61,0.442-0.963,0.579
		c-0.353,0.136-0.713,0.203-1.082,0.203c-0.373,0-0.724-0.062-1.055-0.184c-0.331-0.123-0.652-0.31-0.963-0.559v0.552h-1.243v-2.827
		h1.414c0.04,0.491,0.219,0.881,0.539,1.171c0.32,0.289,0.729,0.434,1.229,0.434c0.482,0,0.883-0.152,1.203-0.457
		s0.48-0.683,0.48-1.134c0-0.403-0.127-0.718-0.381-0.943c-0.254-0.226-0.745-0.431-1.473-0.614
		c-0.083-0.022-0.208-0.053-0.375-0.093c-0.841-0.192-1.438-0.464-1.788-0.814c-0.232-0.232-0.409-0.501-0.529-0.806
		s-0.181-0.632-0.181-0.982c0-0.754,0.261-1.392,0.782-1.913s1.157-0.782,1.906-0.782c0.316,0,0.619,0.054,0.911,0.161
		s0.59,0.274,0.897,0.503v-0.474H151.456z"/>
	<path fill="#820000" d="M153.987,107.249v-7.086h-1.006v-1.236h2.314v3.273c0.237-0.372,0.529-0.649,0.878-0.831
		c0.348-0.182,0.754-0.273,1.219-0.273c0.395,0,0.766,0.067,1.114,0.201c0.348,0.134,0.647,0.325,0.897,0.575
		c0.307,0.311,0.525,0.646,0.654,1.006s0.194,0.854,0.194,1.485v2.886h1.045v1.249h-3.353v-1.249h0.999v-2.505
		c0-0.89-0.134-1.512-0.401-1.866c-0.268-0.355-0.721-0.533-1.361-0.533c-0.609,0-1.076,0.209-1.4,0.625
		c-0.325,0.416-0.487,1.017-0.487,1.801v2.479h0.993v1.249h-3.346v-1.249H153.987z"/>
	<path fill="#820000" d="M162.039,104.863c0-0.509,0.097-0.995,0.289-1.46c0.193-0.464,0.474-0.881,0.842-1.249
		c0.359-0.359,0.771-0.635,1.236-0.828c0.464-0.192,0.953-0.289,1.466-0.289s1.001,0.097,1.466,0.289
		c0.464,0.193,0.879,0.469,1.242,0.828c0.363,0.364,0.641,0.777,0.832,1.239c0.19,0.463,0.285,0.952,0.285,1.47
		c0,0.517-0.095,1.007-0.285,1.469c-0.191,0.463-0.469,0.875-0.832,1.239c-0.363,0.359-0.778,0.636-1.242,0.828
		c-0.465,0.192-0.953,0.289-1.466,0.289s-1.002-0.097-1.466-0.289c-0.465-0.192-0.877-0.469-1.236-0.828
		c-0.368-0.368-0.648-0.784-0.842-1.249C162.136,105.857,162.039,105.371,162.039,104.863z M163.406,104.863
		c0,0.71,0.24,1.311,0.721,1.804c0.479,0.493,1.062,0.74,1.745,0.74c0.679,0,1.258-0.248,1.735-0.743s0.717-1.096,0.717-1.801
		c0-0.706-0.239-1.307-0.717-1.802s-1.057-0.743-1.735-0.743c-0.684,0-1.266,0.247-1.745,0.74
		C163.646,103.552,163.406,104.153,163.406,104.863z"/>
	<path fill="#820000" d="M178.026,106.06c-0.254,0.784-0.715,1.419-1.384,1.902c-0.668,0.484-1.419,0.727-2.251,0.727
		c-0.513,0-1.002-0.097-1.466-0.289c-0.465-0.192-0.877-0.469-1.236-0.828c-0.368-0.368-0.648-0.784-0.842-1.249
		c-0.192-0.465-0.289-0.951-0.289-1.459c0-0.509,0.097-0.995,0.289-1.46c0.193-0.464,0.474-0.881,0.842-1.249
		c0.372-0.363,0.792-0.641,1.259-0.831c0.467-0.191,0.966-0.286,1.496-0.286c0.486,0,0.917,0.082,1.291,0.246
		c0.375,0.165,0.681,0.402,0.917,0.714v-0.782h1.171v2.438h-1.236c-0.263-0.438-0.58-0.771-0.95-0.996s-0.785-0.339-1.245-0.339
		c-0.68,0-1.261,0.248-1.742,0.743c-0.482,0.495-0.724,1.096-0.724,1.802c0,0.705,0.24,1.304,0.721,1.794
		c0.479,0.491,1.062,0.736,1.745,0.736c0.455,0,0.869-0.115,1.242-0.345c0.372-0.23,0.682-0.561,0.927-0.989H178.026z"/>
	<path fill="#820000" d="M179.913,107.249v-7.086h-1.025v-1.236h2.326v5.667l2.235-2.144h-1.131v-1.235h3.839v1.235h-1.144
		l-2.234,2.144l2.715,2.655h0.933v1.249h-3.661v-1.249h0.94l-2.492-2.479v2.479h1v1.249h-3.353v-1.249H179.913z"/>
	<path fill="#820000" d="M188.071,107.249v-4.799h-1.025v-1.235h2.326v6.034h1v1.249h-3.353v-1.249H188.071z M188.051,100.518
		v-1.591h1.335v1.591H188.051z"/>
	<path fill="#820000" d="M192.364,107.249v-4.799h-1.025v-1.235h2.274v1.052c0.231-0.395,0.526-0.688,0.884-0.881
		c0.357-0.193,0.781-0.29,1.272-0.29c0.39,0,0.759,0.067,1.107,0.201s0.647,0.325,0.897,0.575c0.311,0.311,0.53,0.646,0.657,1.006
		s0.19,0.854,0.19,1.485v2.886h1.039v1.249h-3.34v-1.249h0.992v-2.505c0-0.89-0.134-1.512-0.4-1.866
		c-0.268-0.355-0.721-0.533-1.361-0.533c-0.608,0-1.075,0.209-1.399,0.625c-0.325,0.416-0.487,1.017-0.487,1.801v2.479h1v1.249
		h-3.353v-1.249H192.364z"/>
	<path fill="#820000" d="M206.648,107.624c-0.315,0.346-0.678,0.605-1.085,0.778c-0.407,0.174-0.868,0.26-1.381,0.26
		c-0.504,0-0.979-0.092-1.423-0.275c-0.444-0.185-0.849-0.456-1.213-0.815c-0.368-0.368-0.648-0.783-0.842-1.246
		c-0.192-0.462-0.289-0.949-0.289-1.462c0-0.514,0.097-1.001,0.289-1.463c0.193-0.463,0.474-0.878,0.842-1.246
		c0.364-0.359,0.769-0.63,1.213-0.812s0.919-0.273,1.423-0.273c0.539,0,1.012,0.085,1.417,0.254
		c0.405,0.168,0.764,0.433,1.075,0.792v-0.9h2.313v1.235h-1.006v4.621c0,0.789-0.071,1.391-0.214,1.805
		c-0.142,0.414-0.378,0.79-0.706,1.127c-0.359,0.368-0.777,0.643-1.253,0.822s-1.013,0.27-1.613,0.27
		c-0.859,0-1.565-0.177-2.12-0.529s-0.991-0.908-1.312-1.666h1.584c0.167,0.307,0.403,0.536,0.71,0.689s0.687,0.23,1.138,0.23
		c0.705,0,1.279-0.198,1.722-0.595C206.361,108.828,206.604,108.294,206.648,107.624z M206.701,104.863
		c0-0.736-0.231-1.345-0.694-1.824c-0.462-0.48-1.053-0.721-1.771-0.721c-0.679,0-1.258,0.248-1.735,0.743s-0.717,1.096-0.717,1.802
		c0,0.705,0.239,1.304,0.717,1.794c0.478,0.491,1.057,0.736,1.735,0.736c0.719,0,1.31-0.237,1.771-0.713
		C206.47,106.205,206.701,105.599,206.701,104.863z"/>
	<path fill="#820000" d="M213.932,106.145h1.387v0.026c0,0.377,0.116,0.686,0.349,0.927s0.53,0.361,0.895,0.361
		c0.372,0,0.667-0.086,0.884-0.259c0.217-0.174,0.325-0.409,0.325-0.707c0-0.289-0.08-0.514-0.239-0.674
		c-0.16-0.16-0.466-0.304-0.917-0.431c-0.123-0.035-0.294-0.085-0.513-0.151c-0.636-0.18-1.03-0.317-1.184-0.414
		c-0.315-0.201-0.549-0.438-0.7-0.707c-0.151-0.269-0.227-0.586-0.227-0.949c0-0.613,0.203-1.12,0.611-1.519
		c0.407-0.398,0.929-0.599,1.564-0.599c0.276,0,0.532,0.048,0.769,0.142c0.237,0.095,0.452,0.235,0.645,0.424v-0.4h1.117v1.886
		h-1.262c-0.039-0.289-0.157-0.517-0.352-0.684c-0.195-0.166-0.446-0.249-0.753-0.249c-0.303,0-0.551,0.085-0.746,0.256
		s-0.292,0.384-0.292,0.638c0,0.416,0.425,0.745,1.274,0.986c0.299,0.083,0.533,0.153,0.704,0.21c0.675,0.22,1.151,0.493,1.43,0.822
		c0.278,0.328,0.417,0.773,0.417,1.334c0,0.657-0.219,1.196-0.657,1.617s-1.006,0.631-1.702,0.631c-0.342,0-0.644-0.052-0.904-0.154
		s-0.496-0.264-0.707-0.483v0.474h-1.216V106.145z"/>
	<path fill="#820000" d="M227.678,106.185c-0.307,0.779-0.78,1.393-1.42,1.837s-1.365,0.667-2.176,0.667
		c-0.513,0-1.002-0.097-1.466-0.289c-0.465-0.192-0.877-0.469-1.236-0.828c-0.368-0.368-0.648-0.784-0.842-1.249
		c-0.192-0.465-0.289-0.951-0.289-1.459c0-0.509,0.097-0.995,0.289-1.46c0.193-0.464,0.474-0.881,0.842-1.249
		c0.359-0.359,0.771-0.635,1.236-0.828c0.464-0.192,0.953-0.289,1.466-0.289c0.648,0,1.251,0.148,1.808,0.447
		c0.557,0.298,1.015,0.714,1.374,1.249c0.21,0.319,0.368,0.654,0.473,1.005c0.105,0.352,0.158,0.722,0.158,1.111
		c0,0.062-0.002,0.128-0.007,0.2c-0.004,0.072-0.013,0.181-0.026,0.326h-6.198c0.145,0.613,0.438,1.103,0.881,1.469
		c0.442,0.366,0.955,0.549,1.538,0.549c0.425,0,0.815-0.103,1.173-0.309s0.668-0.507,0.931-0.9H227.678z M221.715,104.146h4.727
		c-0.166-0.562-0.461-1.006-0.884-1.335c-0.423-0.328-0.915-0.493-1.476-0.493c-0.557,0-1.045,0.161-1.463,0.483
		C222.2,103.124,221.899,103.572,221.715,104.146z"/>
	<path fill="#820000" d="M236.236,106.06c-0.254,0.784-0.715,1.419-1.384,1.902c-0.668,0.484-1.419,0.727-2.251,0.727
		c-0.513,0-1.002-0.097-1.466-0.289c-0.465-0.192-0.877-0.469-1.236-0.828c-0.368-0.368-0.648-0.784-0.842-1.249
		c-0.192-0.465-0.289-0.951-0.289-1.459c0-0.509,0.097-0.995,0.289-1.46c0.193-0.464,0.474-0.881,0.842-1.249
		c0.372-0.363,0.792-0.641,1.259-0.831c0.467-0.191,0.966-0.286,1.496-0.286c0.486,0,0.917,0.082,1.291,0.246
		c0.375,0.165,0.681,0.402,0.917,0.714v-0.782h1.171v2.438h-1.236c-0.263-0.438-0.58-0.771-0.95-0.996s-0.785-0.339-1.245-0.339
		c-0.68,0-1.261,0.248-1.742,0.743c-0.482,0.495-0.724,1.096-0.724,1.802c0,0.705,0.24,1.304,0.721,1.794
		c0.479,0.491,1.062,0.736,1.745,0.736c0.455,0,0.869-0.115,1.242-0.345c0.372-0.23,0.682-0.561,0.927-0.989H236.236z"/>
	<path fill="#820000" d="M238.149,107.249v-4.799h-1.013v-1.235h2.274v1.144c0.21-0.416,0.479-0.727,0.806-0.931
		c0.326-0.203,0.734-0.314,1.226-0.332v1.492c-0.68,0-1.181,0.194-1.506,0.582c-0.324,0.388-0.486,0.987-0.486,1.798v2.281h1v1.249
		h-3.353v-1.249H238.149z"/>
	<path fill="#820000" d="M249.673,106.185c-0.307,0.779-0.78,1.393-1.42,1.837s-1.365,0.667-2.176,0.667
		c-0.513,0-1.002-0.097-1.466-0.289c-0.465-0.192-0.877-0.469-1.236-0.828c-0.368-0.368-0.648-0.784-0.842-1.249
		c-0.192-0.465-0.289-0.951-0.289-1.459c0-0.509,0.097-0.995,0.289-1.46c0.193-0.464,0.474-0.881,0.842-1.249
		c0.359-0.359,0.771-0.635,1.236-0.828c0.464-0.192,0.953-0.289,1.466-0.289c0.648,0,1.251,0.148,1.808,0.447
		c0.557,0.298,1.015,0.714,1.374,1.249c0.21,0.319,0.368,0.654,0.473,1.005c0.105,0.352,0.158,0.722,0.158,1.111
		c0,0.062-0.002,0.128-0.007,0.2c-0.004,0.072-0.013,0.181-0.026,0.326h-6.198c0.145,0.613,0.438,1.103,0.881,1.469
		c0.442,0.366,0.955,0.549,1.538,0.549c0.425,0,0.815-0.103,1.173-0.309s0.668-0.507,0.931-0.9H249.673z M243.71,104.146h4.727
		c-0.166-0.562-0.461-1.006-0.884-1.335c-0.423-0.328-0.915-0.493-1.476-0.493c-0.557,0-1.045,0.161-1.463,0.483
		C244.195,103.124,243.895,103.572,243.71,104.146z"/>
	<path fill="#820000" d="M251.69,108.498v-6.048h-1.144v-1.235h1.144v-2.288h1.309v2.288h1.059v1.235h-1.059v4.799h1.059v1.249
		H251.69z"/>
	<path fill="#820000" d="M255.254,106.145h1.387v0.026c0,0.377,0.116,0.686,0.349,0.927s0.53,0.361,0.895,0.361
		c0.372,0,0.667-0.086,0.884-0.259c0.217-0.174,0.325-0.409,0.325-0.707c0-0.289-0.08-0.514-0.239-0.674
		c-0.16-0.16-0.466-0.304-0.917-0.431c-0.123-0.035-0.294-0.085-0.513-0.151c-0.636-0.18-1.03-0.317-1.184-0.414
		c-0.315-0.201-0.549-0.438-0.7-0.707c-0.151-0.269-0.227-0.586-0.227-0.949c0-0.613,0.203-1.12,0.611-1.519
		c0.407-0.398,0.929-0.599,1.564-0.599c0.276,0,0.532,0.048,0.769,0.142c0.237,0.095,0.452,0.235,0.645,0.424v-0.4h1.117v1.886
		h-1.262c-0.039-0.289-0.157-0.517-0.352-0.684c-0.195-0.166-0.446-0.249-0.753-0.249c-0.303,0-0.551,0.085-0.746,0.256
		s-0.292,0.384-0.292,0.638c0,0.416,0.425,0.745,1.274,0.986c0.299,0.083,0.533,0.153,0.704,0.21c0.675,0.22,1.151,0.493,1.43,0.822
		c0.278,0.328,0.417,0.773,0.417,1.334c0,0.657-0.219,1.196-0.657,1.617s-1.006,0.631-1.702,0.631c-0.342,0-0.644-0.052-0.904-0.154
		s-0.496-0.264-0.707-0.483v0.474h-1.216V106.145z"/>
	<path fill="#820000" d="M152.968,123.283h1.006v1.249h-2.301v-0.914c-0.324,0.359-0.692,0.629-1.104,0.809
		c-0.412,0.18-0.878,0.27-1.4,0.27c-0.504,0-0.979-0.092-1.423-0.275c-0.445-0.185-0.849-0.456-1.213-0.815
		c-0.368-0.368-0.648-0.783-0.841-1.246c-0.193-0.462-0.289-0.949-0.289-1.462c0-0.509,0.096-0.995,0.289-1.46
		c0.193-0.464,0.473-0.881,0.841-1.249s0.771-0.639,1.209-0.812c0.438-0.173,0.936-0.26,1.492-0.26c0.526,0,0.984,0.083,1.374,0.25
		c0.39,0.166,0.741,0.427,1.052,0.782v-0.9h2.314v1.235h-1.006V123.283z M151.686,120.897c0-0.736-0.231-1.345-0.693-1.824
		c-0.462-0.48-1.053-0.721-1.772-0.721c-0.679,0-1.258,0.248-1.735,0.743s-0.716,1.096-0.716,1.802c0,0.705,0.239,1.304,0.716,1.794
		c0.478,0.491,1.056,0.736,1.735,0.736c0.719,0,1.31-0.237,1.772-0.713S151.686,121.633,151.686,120.897z"/>
	<path fill="#820000" d="M155.979,123.283v-7.086h-1.006v-1.236h2.314v3.188c0.311-0.359,0.669-0.624,1.075-0.792
		c0.406-0.169,0.878-0.254,1.417-0.254c0.504,0,0.977,0.092,1.42,0.273s0.848,0.452,1.217,0.812c0.363,0.364,0.641,0.777,0.83,1.239
		c0.191,0.463,0.287,0.952,0.287,1.47c0,0.517-0.096,1.007-0.287,1.469c-0.189,0.463-0.467,0.875-0.83,1.239
		c-0.369,0.359-0.773,0.631-1.217,0.815c-0.443,0.184-0.916,0.275-1.42,0.275c-0.521,0-0.989-0.09-1.404-0.27
		c-0.414-0.18-0.781-0.449-1.101-0.809v0.914h-2.301v-1.249H155.979z M157.26,120.897c0,0.735,0.229,1.342,0.687,1.817
		s1.046,0.713,1.765,0.713c0.68,0,1.26-0.245,1.738-0.736c0.48-0.49,0.721-1.089,0.721-1.794c0-0.706-0.24-1.307-0.721-1.802
		c-0.479-0.495-1.059-0.743-1.738-0.743c-0.714,0-1.301,0.239-1.761,0.717S157.26,120.156,157.26,120.897z"/>
	<path fill="#820000" d="M164.412,120.897c0-0.509,0.097-0.995,0.289-1.46c0.193-0.464,0.474-0.881,0.842-1.249
		c0.359-0.359,0.771-0.635,1.236-0.828c0.464-0.192,0.953-0.289,1.466-0.289s1.001,0.097,1.466,0.289
		c0.464,0.193,0.879,0.469,1.242,0.828c0.363,0.364,0.641,0.777,0.832,1.239c0.19,0.463,0.285,0.952,0.285,1.47
		c0,0.517-0.095,1.007-0.285,1.469c-0.191,0.463-0.469,0.875-0.832,1.239c-0.363,0.359-0.778,0.636-1.242,0.828
		c-0.465,0.192-0.953,0.289-1.466,0.289s-1.002-0.097-1.466-0.289c-0.465-0.192-0.877-0.469-1.236-0.828
		c-0.368-0.368-0.648-0.784-0.842-1.249C164.509,121.892,164.412,121.405,164.412,120.897z M165.779,120.897
		c0,0.71,0.24,1.311,0.721,1.804c0.479,0.493,1.062,0.74,1.745,0.74c0.679,0,1.258-0.248,1.735-0.743s0.717-1.096,0.717-1.801
		c0-0.706-0.239-1.307-0.717-1.802s-1.057-0.743-1.735-0.743c-0.684,0-1.266,0.247-1.745,0.74
		C166.02,119.586,165.779,120.188,165.779,120.897z"/>
	<path fill="#820000" d="M178.854,123.493c-0.236,0.395-0.532,0.688-0.887,0.881c-0.355,0.193-0.778,0.29-1.27,0.29
		c-0.39,0-0.757-0.067-1.101-0.201s-0.641-0.325-0.891-0.575c-0.312-0.311-0.53-0.646-0.657-1.006
		c-0.128-0.359-0.191-0.854-0.191-1.485v-2.898h-1.052v-1.236h2.36v3.754c0,0.89,0.134,1.512,0.401,1.866
		c0.267,0.355,0.721,0.533,1.36,0.533c0.609,0,1.076-0.208,1.4-0.625c0.324-0.416,0.486-1.017,0.486-1.801v-2.491h-0.999v-1.236
		h2.301v6.048h1.012v1.223h-2.274V123.493z"/>
	<path fill="#820000" d="M182.93,124.532v-6.048h-1.144v-1.235h1.144v-2.288h1.309v2.288h1.059v1.235h-1.059v4.799h1.059v1.249
		H182.93z"/>
	<path fill="#820000" d="M197.688,123.283h1.006v1.249h-2.301v-0.914c-0.324,0.359-0.692,0.629-1.104,0.809s-0.879,0.27-1.4,0.27
		c-0.504,0-0.979-0.092-1.423-0.275c-0.444-0.185-0.849-0.456-1.213-0.815c-0.368-0.368-0.648-0.783-0.842-1.246
		c-0.192-0.462-0.289-0.949-0.289-1.462c0-0.509,0.097-0.995,0.289-1.46c0.193-0.464,0.474-0.881,0.842-1.249
		s0.771-0.639,1.21-0.812c0.438-0.173,0.936-0.26,1.492-0.26c0.525,0,0.983,0.083,1.374,0.25c0.39,0.166,0.74,0.427,1.052,0.782
		v-0.9h2.313v1.235h-1.006V123.283z M196.407,120.897c0-0.736-0.231-1.345-0.694-1.824c-0.462-0.48-1.053-0.721-1.771-0.721
		c-0.679,0-1.258,0.248-1.735,0.743s-0.717,1.096-0.717,1.802c0,0.705,0.239,1.304,0.717,1.794c0.478,0.491,1.057,0.736,1.735,0.736
		c0.719,0,1.31-0.237,1.771-0.713C196.176,122.239,196.407,121.633,196.407,120.897z"/>
	<path fill="#820000" d="M203.573,124.532v-1.282h1.117v-7.04h-1.117v-1.249h3.24c0.93,0,1.664,0.231,2.206,0.693
		c0.541,0.463,0.812,1.084,0.812,1.864c0,0.446-0.083,0.828-0.25,1.144c-0.166,0.315-0.41,0.555-0.729,0.717
		c0.469,0.14,0.839,0.409,1.111,0.809c0.271,0.398,0.407,0.874,0.407,1.426c0,0.447-0.083,0.867-0.25,1.259
		c-0.166,0.393-0.396,0.718-0.69,0.977c-0.293,0.245-0.622,0.421-0.985,0.525c-0.364,0.105-0.879,0.158-1.545,0.158H203.573z
		 M206.051,123.237h1.085c0.645,0,1.117-0.119,1.42-0.358c0.303-0.238,0.453-0.608,0.453-1.107c0-0.544-0.157-0.955-0.473-1.236
		c-0.315-0.28-0.782-0.421-1.4-0.421h-1.085V123.237z M206.064,118.971h0.453c0.715,0,1.221-0.108,1.519-0.325
		s0.447-0.575,0.447-1.075c0-0.446-0.135-0.775-0.404-0.985c-0.27-0.211-0.691-0.315-1.266-0.315h-0.749V118.971z"/>
	<path fill="#820000" d="M218.771,123.283h1.006v1.249h-2.301v-0.914c-0.324,0.359-0.692,0.629-1.104,0.809s-0.879,0.27-1.4,0.27
		c-0.504,0-0.979-0.092-1.423-0.275c-0.444-0.185-0.849-0.456-1.213-0.815c-0.368-0.368-0.648-0.783-0.842-1.246
		c-0.192-0.462-0.289-0.949-0.289-1.462c0-0.509,0.097-0.995,0.289-1.46c0.193-0.464,0.474-0.881,0.842-1.249
		s0.771-0.639,1.21-0.812c0.438-0.173,0.936-0.26,1.492-0.26c0.525,0,0.983,0.083,1.374,0.25c0.39,0.166,0.74,0.427,1.052,0.782
		v-0.9h2.313v1.235h-1.006V123.283z M217.489,120.897c0-0.736-0.231-1.345-0.694-1.824c-0.462-0.48-1.053-0.721-1.771-0.721
		c-0.679,0-1.258,0.248-1.735,0.743s-0.717,1.096-0.717,1.802c0,0.705,0.239,1.304,0.717,1.794c0.478,0.491,1.057,0.736,1.735,0.736
		c0.719,0,1.31-0.237,1.771-0.713C217.258,122.239,217.489,121.633,217.489,120.897z"/>
	<path fill="#820000" d="M221.854,123.283v-4.799h-1.025v-1.235h2.274v1.052c0.231-0.395,0.526-0.688,0.884-0.881
		c0.357-0.193,0.781-0.29,1.272-0.29c0.39,0,0.759,0.067,1.107,0.201s0.647,0.325,0.897,0.575c0.311,0.311,0.53,0.646,0.657,1.006
		s0.19,0.854,0.19,1.485v2.886h1.039v1.249h-3.34v-1.249h0.992v-2.505c0-0.89-0.134-1.512-0.4-1.866
		c-0.268-0.355-0.721-0.533-1.361-0.533c-0.608,0-1.075,0.209-1.399,0.625c-0.325,0.416-0.487,1.017-0.487,1.801v2.479h1v1.249
		h-3.353v-1.249H221.854z"/>
	<path fill="#820000" d="M237.473,123.283h1.006v1.249h-2.301v-0.914c-0.324,0.359-0.692,0.629-1.104,0.809s-0.879,0.27-1.4,0.27
		c-0.504,0-0.979-0.092-1.423-0.275c-0.444-0.185-0.849-0.456-1.213-0.815c-0.368-0.368-0.648-0.783-0.842-1.246
		c-0.192-0.462-0.289-0.949-0.289-1.462c0-0.509,0.097-0.995,0.289-1.46c0.193-0.464,0.474-0.881,0.842-1.249
		s0.771-0.639,1.21-0.812c0.438-0.173,0.936-0.26,1.492-0.26c0.525,0,0.983,0.083,1.374,0.25c0.39,0.166,0.74,0.427,1.052,0.782
		v-0.9h2.313v1.235h-1.006V123.283z M236.191,120.897c0-0.736-0.231-1.345-0.694-1.824c-0.462-0.48-1.053-0.721-1.771-0.721
		c-0.679,0-1.258,0.248-1.735,0.743s-0.717,1.096-0.717,1.802c0,0.705,0.239,1.304,0.717,1.794c0.478,0.491,1.057,0.736,1.735,0.736
		c0.719,0,1.31-0.237,1.771-0.713C235.96,122.239,236.191,121.633,236.191,120.897z"/>
	<path fill="#820000" d="M240.557,123.283v-4.799h-1.025v-1.235h2.274v1.052c0.231-0.395,0.526-0.688,0.884-0.881
		c0.357-0.193,0.781-0.29,1.272-0.29c0.39,0,0.759,0.067,1.107,0.201s0.647,0.325,0.897,0.575c0.311,0.311,0.53,0.646,0.657,1.006
		s0.19,0.854,0.19,1.485v2.886h1.039v1.249h-3.34v-1.249h0.992v-2.505c0-0.89-0.134-1.512-0.4-1.866
		c-0.268-0.355-0.721-0.533-1.361-0.533c-0.608,0-1.075,0.209-1.399,0.625c-0.325,0.416-0.487,1.017-0.487,1.801v2.479h1v1.249
		h-3.353v-1.249H240.557z"/>
	<path fill="#820000" d="M256.175,123.283h1.006v1.249h-2.301v-0.914c-0.324,0.359-0.692,0.629-1.104,0.809s-0.879,0.27-1.4,0.27
		c-0.504,0-0.979-0.092-1.423-0.275c-0.444-0.185-0.849-0.456-1.213-0.815c-0.368-0.368-0.648-0.783-0.842-1.246
		c-0.192-0.462-0.289-0.949-0.289-1.462c0-0.509,0.097-0.995,0.289-1.46c0.193-0.464,0.474-0.881,0.842-1.249
		s0.771-0.639,1.21-0.812c0.438-0.173,0.936-0.26,1.492-0.26c0.525,0,0.983,0.083,1.374,0.25c0.39,0.166,0.74,0.427,1.052,0.782
		v-0.9h2.313v1.235h-1.006V123.283z M254.894,120.897c0-0.736-0.231-1.345-0.694-1.824c-0.462-0.48-1.053-0.721-1.771-0.721
		c-0.679,0-1.258,0.248-1.735,0.743s-0.717,1.096-0.717,1.802c0,0.705,0.239,1.304,0.717,1.794c0.478,0.491,1.057,0.736,1.735,0.736
		c0.719,0,1.31-0.237,1.771-0.713C254.662,122.239,254.894,121.633,254.894,120.897z"/>
	<path fill="#820000" d="M268.048,114.961v2.38h-1.374c-0.149-0.43-0.35-0.75-0.602-0.96s-0.562-0.315-0.93-0.315
		c-0.417,0-0.754,0.12-1.013,0.361s-0.388,0.555-0.388,0.94c0,0.372,0.109,0.661,0.328,0.867c0.22,0.206,0.645,0.391,1.275,0.553
		c0.075,0.018,0.191,0.046,0.349,0.085c0.881,0.211,1.522,0.491,1.926,0.842c0.294,0.254,0.513,0.552,0.658,0.894
		c0.145,0.342,0.217,0.734,0.217,1.177c0,0.421-0.085,0.818-0.253,1.193c-0.169,0.375-0.409,0.695-0.721,0.963
		c-0.289,0.25-0.61,0.442-0.963,0.579c-0.353,0.136-0.713,0.203-1.081,0.203c-0.373,0-0.725-0.062-1.055-0.184
		c-0.331-0.123-0.652-0.31-0.964-0.559v0.552h-1.242v-2.827h1.413c0.04,0.491,0.22,0.881,0.539,1.171
		c0.32,0.289,0.73,0.434,1.229,0.434c0.482,0,0.883-0.152,1.203-0.457s0.479-0.683,0.479-1.134c0-0.403-0.127-0.718-0.381-0.943
		s-0.745-0.431-1.473-0.614c-0.083-0.022-0.208-0.053-0.375-0.093c-0.841-0.192-1.438-0.464-1.788-0.814
		c-0.231-0.232-0.408-0.501-0.528-0.806c-0.121-0.305-0.181-0.632-0.181-0.982c0-0.754,0.26-1.392,0.782-1.913
		c0.521-0.521,1.156-0.782,1.906-0.782c0.315,0,0.618,0.054,0.91,0.161c0.291,0.107,0.591,0.274,0.897,0.503v-0.474H268.048z"/>
	<path fill="#820000" d="M270.651,123.283v-7.086h-1.025v-1.236h2.326v8.322h1v1.249H269.6v-1.249H270.651z"/>
	<path fill="#820000" d="M279.749,123.493c-0.236,0.395-0.532,0.688-0.887,0.881c-0.355,0.193-0.778,0.29-1.27,0.29
		c-0.39,0-0.757-0.067-1.101-0.201s-0.641-0.325-0.891-0.575c-0.312-0.311-0.53-0.646-0.657-1.006
		c-0.128-0.359-0.191-0.854-0.191-1.485v-2.898h-1.052v-1.236h2.36v3.754c0,0.89,0.134,1.512,0.401,1.866
		c0.267,0.355,0.721,0.533,1.36,0.533c0.609,0,1.076-0.208,1.4-0.625c0.324-0.416,0.486-1.017,0.486-1.801v-2.491h-0.999v-1.236
		h2.301v6.048h1.012v1.223h-2.274V123.493z"/>
	<path fill="#820000" d="M289.13,123.658c-0.315,0.346-0.678,0.605-1.085,0.778c-0.407,0.174-0.868,0.26-1.381,0.26
		c-0.504,0-0.979-0.092-1.423-0.275c-0.444-0.185-0.849-0.456-1.213-0.815c-0.368-0.368-0.648-0.783-0.842-1.246
		c-0.192-0.462-0.289-0.949-0.289-1.462c0-0.514,0.097-1.001,0.289-1.463c0.193-0.463,0.474-0.878,0.842-1.246
		c0.364-0.359,0.769-0.63,1.213-0.812s0.919-0.273,1.423-0.273c0.539,0,1.012,0.085,1.417,0.254
		c0.405,0.168,0.764,0.433,1.075,0.792v-0.9h2.313v1.235h-1.006v4.621c0,0.789-0.071,1.391-0.214,1.805
		c-0.142,0.414-0.378,0.79-0.706,1.127c-0.359,0.368-0.777,0.643-1.253,0.822s-1.013,0.27-1.613,0.27
		c-0.859,0-1.565-0.177-2.12-0.529s-0.991-0.908-1.312-1.666h1.584c0.167,0.307,0.403,0.536,0.71,0.689s0.687,0.23,1.138,0.23
		c0.705,0,1.279-0.198,1.722-0.595C288.843,124.862,289.086,124.328,289.13,123.658z M289.183,120.897
		c0-0.736-0.231-1.345-0.694-1.824c-0.462-0.48-1.053-0.721-1.771-0.721c-0.679,0-1.258,0.248-1.735,0.743s-0.717,1.096-0.717,1.802
		c0,0.705,0.239,1.304,0.717,1.794c0.478,0.491,1.057,0.736,1.735,0.736c0.719,0,1.31-0.237,1.771-0.713
		C288.951,122.239,289.183,121.633,289.183,120.897z"/>
	<path fill="#820000" d="M294.486,124.532h-1.314v-1.617h1.314V124.532z"/>
</g>
<g>
	<path fill="#820000" d="M134.537,53.162l-0.58,0.645l-0.193,0.773c0.387,0.322,0.58,0.838,0.58,1.289
		c0,1.868,0.129,5.025-0.516,6.766h-0.129l-0.257,2.127c-0.387,0.321-0.129,1.224-0.838,1.417c0,0.129-0.064,0.258-0.064,0.387
		c0,0.58,0.387,0.967,0.387,1.482l-0.322,0.645c-0.322,3.157-2.062,5.928-4.124,8.184l0.129,0.258
		c-0.838,0.708-1.804,1.288-2.578,1.997c-0.708,0-1.16,0.902-1.933,0.645c-1.546,0.193-3.093,0.258-4.64,0.258
		c-0.902,0-2.319,0.129-2.706-0.902c-0.451,0.129-0.967,0.258-1.354,0.58c-0.773,0.193-1.869,0.451-2.642,0.451
		c-0.58,0-0.967-0.516-1.547-0.516c-0.129,0-1.482,0.516-1.933,0.58l-0.064-0.838l-0.258-0.516l0.258-0.387l0.451,0.129
		c0.387-0.129,0.838-0.193,1.225-0.322c0.966-1.868,2.255-0.516,2.255-3.479c0-0.709,0.129-1.418,0.451-1.997v-0.129l0.322-0.967
		c-0.193-0.58-0.58-1.869-0.902-2.32c0-0.579-0.129-1.159-0.129-1.739c0-1.998,0.773-4.317,0.257-6.315
		c0.258-0.451,0.129-1.095,0.451-1.546v-0.129c0-0.387-0.387-1.805-0.58-2.191c0.128-1.417,0.322-3.157,0.064-4.575
		c0.064-0.579,0.451-1.03,0.451-1.675l0.387-0.902l-0.193-0.387c-0.064-0.516-0.387-1.031-0.516-1.546l0.129-0.193
		c-0.322-1.16-0.322-2.385-0.58-3.544c0.193-0.451,0.515-0.774,0.515-1.225v-0.128c-0.451-0.258-0.837-0.58-0.773-1.16
		c-0.387-0.709-0.58-1.611-1.225-2.126c-0.322-0.064-0.708,0-1.031,0.064c-0.129,0-0.258-0.129-0.451-0.064l-0.645,0.193
		l-0.322-0.193c0.193-0.516-0.064-1.031-0.064-1.546c0-0.258,0.322-0.902,0.644-0.902c0.516,0,1.225,0.322,1.804,0.322
		c1.354,0,2.771-0.709,3.995-0.709c0.451,0,0.709,0.193,1.031,0.516l0.838-0.58c1.289,0.129,2.577,0.451,3.931,0.516
		c0.644,0.709,1.933,0.451,2.706,0.967c0.193,0.064,0.387,0.193,0.58,0.193c0.645,0,1.224-0.451,1.869-0.451h0.193
		c0.516,0.902,2.642,0.709,3.737,3.157c0.902,0.709,1.354,1.805,1.418,2.965l0.451,0.129c2.062,3.866,1.611,4.316,2.578,8.376
		V53.162z M114.883,55.418c-0.064,0.58-0.258,1.353-0.258,1.933c0,0.451,0.451,3.223,0.644,3.608l0.064,0.129
		C115.27,59.22,115.398,57.222,114.883,55.418z M115.141,39.051l-0.386-0.064l0.129,0.58h0.129l0.193-0.386L115.141,39.051z
		 M116.43,75.909l-0.064-0.902c-0.451,0.451-0.322,1.482-0.322,2.062c0.258,0.45,0.838,0.644,1.353,0.901
		C116.688,77.52,116.752,76.618,116.43,75.909z M116.236,43.948c-0.064,1.29,0.129,2.642-0.129,3.867
		c0.387-0.194,0.709-0.58,0.709-1.031l0.064-0.902C116.881,45.237,116.623,44.593,116.236,43.948z M127.191,50.714v-0.129
		c0.064-1.16-0.645-2.19-0.58-3.351c-0.58-1.354,0.322-1.676-1.096-3.093c-1.224-0.065-1.611-1.482-2.448-2.127
		c-0.773,0.129-1.482-0.258-2.255-0.258h-0.129c-0.387,1.289-0.451,2.643-0.451,3.931c0,0.709,0.258,1.354,0.451,1.997
		c-0.773,1.16-0.387,3.545-0.516,4.897c0.258,0.58-0.064,1.16,0.129,1.74l-0.258,0.773c0.129,2.062-0.645,1.418-0.645,2.255
		c0,0.258,0.129,0.58,0.193,0.838c0.838,0.773,0.322,1.998,0.322,3.028c0,1.225,0.322,2.643,0.322,3.866
		c0,1.031-0.967,1.74-0.967,2.514c0.516,0.838,0.516,1.739,0.516,2.706c0,1.354-0.193,2.643-0.193,3.995l0.129,0.258l-0.322,0.645
		c0,0.709,0.967,0.387,1.354,0.58c1.933-0.516,2.835-1.547,3.931-3.093l0.258-1.74l0.322-0.387l-0.064-0.064l0.451-0.967
		l-0.064-1.03v-0.193c1.547-2.965,1.676-5.864,1.096-9.215c1.031-1.16,0.966-2.835,1.031-4.317
		C127.255,54.322,126.869,51.487,127.191,50.714z M121.069,39.437l-0.58,0.129l0.773,0.193l0.257-0.129L121.069,39.437z
		 M125.129,76.103l-0.387,0.129l-1.031,1.417l0.322-0.579l0.193,0.193l1.031-1.031L125.129,76.103z M125.902,40.146l-1.74-0.451
		c0.451,0.709,1.417,0.709,2.126,0.967v-0.129L125.902,40.146z M127.448,71.334l0.258,0.645c0.387-0.838,0.709-1.676,0.967-2.578
		L127.448,71.334z M128.608,41.821l-0.064,0.322c0,0.58,0.451,1.16,1.031,1.16l0.129-0.064
		C129.704,42.595,128.995,42.208,128.608,41.821z M132.217,55.031v0.451c0,1.353-0.322,2.706-0.58,3.995
		c0.387-0.709,0.967-1.611,0.967-2.449C132.604,56.32,132.41,55.676,132.217,55.031z"/>
	<path fill="#820000" d="M156.508,53.227l-0.386,0.387l-0.258-0.064c-0.258,0.064-0.773,0.322-0.967,0.322
		c-0.708,0-0.451-1.933-0.451-2.19s-0.064-0.516-0.128-0.773c0.193-0.516-0.322-1.547-0.322-2.191c0-0.515-0.258-0.967-0.516-1.417
		v-0.193c0-0.773-0.773-1.225-0.709-1.997c-1.16-1.483-1.546-1.612-3.222-2.32l-0.902,0.129l-0.708-0.451
		c-0.773,0.129-1.289,0.516-2.062,0.322c-0.387,1.934-0.516,3.802-0.516,5.799c0,0.838-0.258,1.547-0.129,2.449l-0.58,1.031
		l0.129,0.387c0.709,0.579,0.387,1.61,0.387,2.384c0,1.031,0.129,2.126,0,3.222h0.129c0.58-0.387,1.482-0.387,2.062-0.58v-0.129
		c0-0.644,0.709-0.837,1.031-1.288c0.709-0.773,0.129-1.934,0.838-2.707c0.064-0.258-0.193-0.709-0.193-0.966
		c0-0.838,1.096-0.258,1.353-0.838l0.258,0.193c-0.064,1.288-0.322,2.835-0.064,4.124l-0.129,0.516
		c0.064,0.515,0.258,1.159,0.258,1.739c0,0.709-0.258,1.482-0.322,2.256c0.838,0.901,0.064,5.541,0.645,7.023
		c-0.129,0.516-0.837,0.451-1.224,0.451h-0.387l-0.258-0.258c-0.064-1.354-0.451-2.835-0.322-4.124l-0.322-0.58
		c-0.064-0.064-0.966-1.547-1.546-1.934l-1.095,0.129c-0.129-0.064-0.516-0.258-0.709-0.258c-1.031,1.676-0.516,4.125-0.387,5.993
		c-0.258,0.709-0.258,4.962-0.258,6.122c0,0.515,0,1.095,0.322,1.546c-0.193,0.451-0.129,1.096-0.064,1.482l0.193,0.193h0.516
		l2.642-0.064l0.838-0.58l0.258,0.064c0.516,0,0.967-0.129,1.482-0.193c0.645-0.838,1.418-1.611,2.126-2.384v-0.129
		c0-0.516,0.193-1.031,0.129-1.547c1.031-0.58,0.967-3.608,1.74-4.962l-0.064-0.387c0-0.451,0.258-0.645,0.709-0.645
		c0.193,0,0.838,0.258,1.031,0.258c-0.064,0.322,0,0.58,0,0.838c0,1.225-0.451,2.256-0.322,3.544l-0.516,0.838l0.258,0.322
		l-0.129,0.967l0.129,0.516c-0.064,0.451-0.193,0.966-0.193,1.481l0.322,0.902c-0.064,1.482-0.193,2.899-0.129,4.382
		c-0.129,0.258-0.773,0.58-1.031,0.58c-1.16,0-2.32-0.58-3.479-0.645c-0.258-0.258-2.449-0.129-2.964-0.129
		c-0.837,0-1.74,0-2.513-0.322c-0.645,0.129-1.225,0.387-1.869,0.387c-0.129,0-0.838-0.322-1.031-0.387
		c-0.516,0.064-0.902,0.451-1.224,0.773v0.258l-0.773,0.193l-0.451-0.193c-0.837,0-1.74,0.064-2.449,0.58
		c-0.193,0.064-0.708-0.064-0.966-0.064l-0.516,0.258c-0.902-0.322-1.933-0.064-2.899-0.451c0.128-0.387-0.193-0.967,0.257-1.225
		h0.322c0.709,0,1.289-0.451,1.933-0.773c0.322-0.58,0.773-1.159,1.16-1.804c0.451-0.258,0.644-0.773,0.966-1.096v-0.387
		c0.645-0.193,0.193-6.766,0.193-7.668l0.451-0.902c-0.129-0.516,0-1.031-0.258-1.481c0.129-1.418-0.58-2.514-0.58-3.932
		c0-0.579,0.193-1.159,0.709-1.61c0.129-0.516,0.064-1.096,0-1.547c0.258-0.58,0.387-1.224,0.322-1.804
		c-0.516-0.516-0.709-1.225-0.709-1.934c0-0.451,0.064-0.902,0.258-1.354l-0.064-0.129l0.193-0.515v-0.129l0.129-0.645
		c-0.129-0.129-0.902-3.415-0.902-3.803l0.387-0.901c-0.064-0.387,0.064-0.838,0.129-1.16c-0.322-0.966-0.516-2.577-0.58-3.673
		c-0.58-1.095-1.546-1.224-2.642-1.224c-0.322,0-0.58-0.129-0.902-0.129l-0.193-0.838c0.387-0.837,0.193-1.095,1.289-1.095
		c1.224,0,2.255,0.709,3.351,1.031c0.387-0.064,0.967-0.258,1.353-0.258c0.645,0,1.16,0.58,1.804,0.58l0.645-0.322
		c0.838,0.516,2.062,0.387,2.835-0.064c0.322,0.322,0.902,0.064,1.224,0.387h0.064l0.451,0.193c1.16,0,3.802-0.58,4.962-0.773
		l0.322,0.064c1.225-0.128,2.126,0.322,3.351-0.128l0.258,0.386c-0.064,0.258-0.129,0.645-0.129,0.967v2.835l0.386,0.774
		c-0.128,1.224,0.193,2.19,0.193,3.35c0,0.517-0.129,0.968-0.322,1.418c0.515,1.096,0.257,2.32,0.322,3.48l0.064,0.837H156.508z
		 M139.303,77.906c-0.58,0-0.773,0.709-1.289,0.838c0.58-0.064,1.225-0.129,1.805-0.322L139.303,77.906z M142.009,41.37
		c-0.708-0.193-1.482,0-2.126-0.193l0.322,0.515l0.322-0.064c0.58,0,1.096,0.387,1.675,0.387l0.967-0.645
		C142.847,41.306,142.332,41.241,142.009,41.37z M140.721,55.096h-0.129l-0.322,0.902l0.451,1.417V55.096z M141.494,76.231
		l-0.773,0.902l0.387,0.257l0.387-0.966V76.231z M141.559,67.983c-0.193,0.967-0.322,1.997-0.322,3.028v0.709h0.322
		c0.322-0.322,0.387-0.838,0.387-1.289C141.945,69.594,141.623,68.821,141.559,67.983z M143.556,55.547
		c-0.193,0.451-0.322,0.902-0.322,1.417c0,0.516,0.129,0.967,0.387,1.418l0.386-0.451C143.492,57.222,143.943,56.256,143.556,55.547
		z M144.136,47.62c-0.193,0.839-0.451,1.676-0.451,2.514c0,0.193,0.064,0.322,0.258,0.258c0.257-0.387,0.322-0.838,0.322-1.289
		S144.2,48.137,144.136,47.62z M148.453,58.962l0.838,0.516l-0.064-0.322c0.258-0.193,0.258-0.58,0.322-0.902v-0.516
		C149.227,58.188,148.646,58.446,148.453,58.962z M150.257,40.791c-0.322,0-1.031,0-1.095,0.451c0.645,0,1.353,0,1.998-0.193
		C150.966,40.984,150.451,40.791,150.257,40.791z M154.446,76.683c-0.773,0.644-1.804,0.901-2.771,1.095
		c0.837-0.064,1.675-0.064,2.578-0.129l0.257-0.772L154.446,76.683z M154.06,40.468l-1.031,0.193
		c0.451,0.451,1.16,0.708,1.611,1.224v-1.224L154.06,40.468z"/>
	<path fill="#820000" d="M184.407,51.101l-0.386,0.129l-0.645-0.064l-0.322,0.064l-0.516-0.838l0.129-0.387
		c0-0.967-0.838-1.418-0.516-2.514c-0.645-0.257-0.967-0.772-0.902-1.481l-0.773-0.772h-0.192l-0.516-0.451l-0.902-0.193
		l-0.387,0.064c-0.193-0.258-0.58-0.451-0.902-0.516l-0.58,0.193l-1.03-0.193l-0.58,0.258c-0.258,1.03-0.129,1.804-0.129,2.835
		c0,0.386-0.193,2.19-0.58,2.319c0.129,0.773-0.193,1.547-0.193,2.385c0,0.58,0.451,1.03,0.451,1.61
		c0,1.096-0.322,2.191-0.322,3.351c0,1.74,0.645,5.349,0.064,6.702c0.516,1.933-0.451,2.642-0.129,4.188l-0.258,0.58
		c0.064,0.387,0.129,0.772,0,1.159c0.129,1.482-0.193,2.836-0.193,4.317c0,0.773,0.258,1.611,0.516,2.32l-0.064,0.773
		c0.645,0.322,0.838,1.546,1.482,1.353l0.901,0.193c0.129-0.064,0.387-0.193,0.516-0.193l0.322,0.58v0.902l-0.451,0.387
		c-1.61,0-4.188-0.387-5.605,0.129l-0.258-0.064l-0.709-0.58h-0.064l-0.709,0.709c-1.225,0-2.319,0.645-3.544,0.645
		c-0.709,0-1.418-0.193-2.127-0.258c-0.322-0.193-0.322-0.645-0.322-0.902v-0.129c0.258-0.258,0.773-0.322,1.096-0.258
		c0.387-0.193,0.838-0.322,1.289-0.387c0.838-1.418,1.354-0.58,1.354-2.577c0-0.516,0.45-0.902,0.45-1.418
		c0-0.387-0.258-0.838-0.258-1.289c0-1.61,0.322-3.028,0.193-4.704l0.064-0.192c-0.258-0.516-0.321-7.54,0.258-7.798
		c0-0.579,0.193-1.095,0.193-1.675c0-1.418-0.129-3.286-0.322-4.704l0.258-0.516c-0.064-0.58-0.451-3.222-0.708-3.608
		c0.128-0.322,0.257-0.838,0.128-1.225c0.064-0.645,0.387-1.288,0.387-1.997c0-0.967-0.258-1.998-0.322-3.028
		c-0.644-0.193-1.095-0.064-1.675-0.064c-1.16,0-1.096-0.258-2.32,0.193c-0.386,0.322-0.772,0.451-1.224,0.645l-0.902-0.451
		l-0.258,0.837l0.387,0.516c-0.516,1.481-1.289,2.513-1.611,4.188c-0.129,0.451-0.837,0.58-1.288,0.58l-0.452-0.129l-0.064-0.58
		c0.387-0.709-0.064-1.482-0.064-2.255l0.322-0.773v-0.387c0-1.031,0.387-1.933,0.193-3.029c0.516-0.644,0.129-1.611,0.644-2.255
		c0-0.322,0.064-0.837,0.322-1.095l-0.064-0.322c0-0.645,0.258-1.224,0.193-1.804l0.902-0.258l0.709,0.193l-0.129,0.322
		c0,0.516,0.129,1.675,0.838,1.74c0.387,1.16,3.479,1.74,4.511,1.482c2.126,0.451,4.253,0.193,6.379,0
		c0.322,0.129,0.838,0.322,1.225,0.258c0.387-0.645,1.225-0.387,1.868-0.387c2.127,0,4.06,0,5.671-1.74
		c0.064-0.322,0.193-0.902,0.58-1.031l0.838,0.193c0.516,0.902,0.387,3.931,0.709,5.09l-0.322,0.452
		c0.644,1.224,0.387,2.642,0.387,3.995c0,0.772,0.321,1.546,0.386,2.255L184.407,51.101z M160.952,42.788l-0.322,0.902v0.064
		c0.387-0.387,0.773-0.837,1.289-1.031L160.952,42.788z M170.167,43.561l-0.193,0.967l0.193,0.064c0.451,0,0.709-0.516,0.902-0.838
		L170.167,43.561z M170.618,67.274l-0.387,1.933l0.838,2.707L170.618,67.274z M171.907,46.332l-0.387,2.255l0.772-0.708
		L171.907,46.332z M172.744,56.964c0,0.516-0.064,1.031-0.258,1.418l0.193,1.031l-0.064,0.258c0.064,0.129,0.516,0.967,0.58,0.967
		l0.064-0.451C173.324,59.155,173.131,57.995,172.744,56.964z M173.775,44.786l-0.58,2.126v0.064l0.387-0.193l0.193-1.804V44.786z
		 M182.475,42.401l-0.709-0.258l0.838,1.74l0.129-0.773L182.475,42.401z"/>
	<path fill="#820000" d="M207.796,83.835l-1.61-0.709c-0.258,0.064-0.516,0.129-0.773,0.129c-0.645,0-1.354-0.645-1.418-1.354
		l0.129-0.258l-0.258-0.257c-0.773,0-1.354-1.547-1.547-2.191l0.064-0.451c-0.257-0.709-0.386-1.481-0.386-2.255
		c0-1.418,0.193-3.995,0.579-5.284l-0.064-0.322l-0.45,0.064l-0.516-0.773c0.129-0.193,0.129-0.387,0.129-0.58
		c0-1.868-0.838-3.222-2.127-4.446c-0.58-0.064-1.289-0.192-1.61-0.772l-0.58-0.064c-0.838-0.064-1.676,0.193-2.514,0.064
		c-0.193,0.387-0.129,0.837-0.129,1.288c0,0.709-0.387,1.354-0.387,2.062v0.322l0.58,0.838l-0.064,0.901
		c-0.129,1.225,0.193,2.449,0.129,3.673c0.387,0.967,0.387,0.645,0.387,1.676c0,0.709,1.031,0.258,1.418,0.58
		c0.193,0.516,0.773,0.451,1.225,0.451c0.45,0,0.772,0.129,0.837,0.645c-0.451,1.224-2.964,0.966-4.253,0.837l-0.387,0.129
		l-0.386-0.064l-0.387-0.258c-0.322,0.193-0.709,0.387-1.096,0.322c-1.547,0.58-1.225,0.258-2.577,0.258
		c-1.289,0-2.9,0.064-4.188,0.451l-0.709-0.709l0.129-0.322l-0.387-0.192l0.129-0.193c0.064-0.838,4.64-0.902,4.64-3.287
		c0-0.708-0.451-1.288-0.451-1.997c0.516-0.967,0.193-2.32,0.193-3.415c0-1.096,0.451-2.062,0.387-3.158l-0.129-0.193l0.193-0.45
		l-0.129-0.193c0.322-1.289,0.258-4.575,0.258-5.929c0-0.709-0.193-1.482-0.516-2.126c0.064-0.773,0.772-1.354,0.772-2.191
		c0-0.773-0.579-1.482-0.579-2.255c0-0.322,0.064-0.645,0.064-0.967l0.45-0.773c-0.064-0.451-0.45-0.773-0.515-1.225l0.129-0.644
		l0.129-0.258c-0.129-0.323-0.258-0.773-0.193-1.16c-0.322-0.709-0.902-1.675-0.451-2.513c-0.709-1.934,0.258-1.74-1.547-3.738
		h-0.129l-0.516-0.129l-0.258,0.129c-0.387,0-0.709-0.451-1.159-0.322l-0.516-0.387c0.064-0.451,0.193-0.837,0.129-1.224
		l0.516-0.258c0.708,0,0.966,0.516,1.804,0.193c0.193,0.064,0.516,0.193,0.773,0.193c0.645,0,1.289-0.322,1.868-0.645l1.096,0.322
		l0.645-0.451c0.451,0,0.773-0.387,1.289-0.322h0.129l0.773,0.387c0.772,0,1.417-0.645,2.384-0.645c0.645,0,1.289,0.129,1.933,0.129
		c1.031,0.58,3.094,0.516,4.188,0.516c0.838,0,1.998,0.387,2.256,1.289h0.064l0.58-0.257c0.516,0.257,0.709,0.322,0.902,0.451
		c0.128,0.129,0.257,0.387,0.515,1.031c1.16,0.322,1.418,1.611,2.191,2.32c0.193,0.773,0.451,1.482,0.451,2.191
		c0,0.515-0.193,0.966-0.387,1.417l0.129,0.193l0.709,0.129c0.129,0.258,0.387,3.479,0.387,4.124c0,0.902-0.064,1.868-0.322,2.771
		l-0.193,0.129c-0.258,0.838,0.129,2.127-0.773,2.707l-0.193-0.064c-0.58,0-0.322,1.03-0.902,1.159l-0.322,0.58l0.193,1.096
		l-0.064,0.258c-0.58,0.58-0.967,1.353-1.481,1.997c-0.709,0.193-1.16,0.838-1.805,1.031c-0.516,0.193-1.354,0.064-1.805,0.451
		h-0.064l-1.417,0.322c0.516,0.451,1.546,0.258,2.255,0.258c0.967,0,0.902,0.902,2.191,0.709c2.19,1.417,2.899,4.961,2.899,7.346
		c0,1.482-1.031,2.835-1.031,4.188c0,0.064,0.451,0.773,0.451,2.835c0,0.129,0.322,0.902,0.387,1.031
		c1.031,1.096,0,1.547,2.899,2.062l0.451,0.322C210.695,83.706,210.76,83.771,207.796,83.835z M191.751,49.489
		c0-0.516-0.064-1.03-0.322-1.481c-0.129,0.387-0.129,0.772-0.129,1.224c0,1.805,0.516,3.544,0.322,5.413h0.129
		c0.258-0.645,0.516-1.289,0.709-1.934C191.558,51.101,191.751,51.358,191.751,49.489z M192.718,73.911l-0.58,0.967l0.258,0.064
		l0.516-0.193L192.718,73.911z M193.813,56.578c-0.129,0.515-0.258,1.03-0.258,1.546l0.064,0.516
		c0.322-0.451,0.644-0.967,0.644-1.482L193.813,56.578z M193.942,54.064l0.128-0.322l-0.386,1.031l0.321,0.838l0.193-0.387
		L193.942,54.064z M202.447,48.33l0.064-1.869l-0.064-0.902c-0.386-0.708-0.45-1.482-0.772-2.126c0-0.837-1.676-1.031-1.482-1.804
		l-0.129-0.064c-0.193,0.064-0.451,0.193-0.58,0.193c-0.645,0-1.675-0.773-2.642-0.773h-0.387c-0.58,1.16-0.902,2.448-0.902,3.738
		c0,0.644,0.129,1.353,0.258,1.997l0.258,0.258l0.064,1.354c0.064,1.61-0.838,2.964-0.838,4.51c0,0.516,0,2.385,0.129,2.707
		l-0.064,0.773l0.258,0.579c-0.322,1.547-0.451,3.223-0.58,4.833c0.129,0.064,0.322,0,0.451-0.064
		c0.193,0.129,0.516,0.322,0.773,0.322c0.322-0.193,0.773-0.516,1.225-0.516l0.579,0.129c1.934-1.675,2.836,1.289,4.833-5.863
		l-0.258-0.258v-0.387c0-1.74,0.645-3.802,0.645-5.542C203.285,49.038,202.705,48.716,202.447,48.33z M202.77,39.888l-0.644,0.322
		l0.321,0.193l0.645-0.193l0.322,0.193L202.77,39.888z M205.219,41.757v-0.322c-0.709-0.322-1.354-0.902-1.998-1.224l-0.064,0.193
		l0.258,0.451h0.193c0.773,0,0.967,0.966,1.611,1.224v-0.064V41.757z M203.543,67.017c0.064,0.773,0.258,1.611,0.387,2.448
		c0.064-0.322,0.387-1.288,0.387-1.546C204.316,67.468,203.865,67.146,203.543,67.017z M203.672,77.069l-0.064,0.579l0.129,0.322
		l0.451-0.451L203.672,77.069z M204.059,79.582l0.064,0.58l0.709,0.516h0.064C204.574,80.355,204.51,79.775,204.059,79.582z
		 M204.703,54.064c-0.322,0-0.451,0.258-0.451,0.58c0,0.387,0.129,0.773,0,1.16c0.193-0.645,0.709-1.096,0.709-1.74H204.703z
		 M204.51,73.139c0.129,0.901,0.258,2.126,1.096,2.642C205.541,75.265,204.961,73.396,204.51,73.139z M207.345,47.299
		c0.064,0.45-0.258,0.838-0.258,1.224c0,0.645,0.387,1.225,0.451,1.869c-0.064-0.645,0.193-1.354,0.193-2.062
		C207.731,48.008,207.538,47.556,207.345,47.299z"/>
	<path fill="#820000" d="M226.288,38.406c0,0.387,0,0.773-0.129,1.16c-0.967,0.129-1.868,0.516-2.835,0.773
		c-0.064,0.387-0.516,1.546-0.258,1.933l-0.516,0.838l-0.322,1.096c0.064,0.258,0.193,0.645,0.193,0.902c0,0.772-0.322,1.03,0,1.868
		c-0.064,0.193-0.129,0.451-0.322,0.644l0.064,0.388c0,0.322-0.193,1.095-0.387,1.353c0,0.645-0.129,1.289-0.129,1.998
		c0.773,0.129,0.58,1.16,0.58,1.739c-0.645,0.516-0.193,1.418-0.516,2.062v0.645l-0.064,2.19l-0.258,0.451l0.129,0.645
		c0,3.673-0.387,7.346-0.387,10.954c0,0.773,0.193,4.64,0.387,5.155l-0.064,0.387l0.193,0.773c0.451,0.129,0.967,0.322,1.031,0.838
		c0.516,0.192,1.354,0.708,1.933,0.837l0.58-0.129l0.258,0.129c-0.193,1.031,0.129,1.805-1.353,1.805
		c-0.902,0-1.676-0.451-2.514-0.516c-1.095,0.645-2.448,0.129-3.673,0.129c-0.967,0-1.868,0.58-2.899,0.58
		c-0.322,0-0.773-0.129-1.096-0.322c-0.902,0.064-1.611,0.258-2.513,0.193c-0.064-0.258-0.258-0.709-0.258-0.902
		c0-0.451,0.129-0.902,0.258-1.289c0.387-0.064,0.709-0.129,1.095-0.193l0.322,0.064l0.516-0.193
		c0.709-0.644,1.805-0.386,1.869-1.61c0.064-1.74-0.258-7.088,0.193-8.184c-0.129-3.028,0-5.993,0-9.021
		c0-0.322-0.129-0.709-0.387-0.967c-0.129-1.224-0.064-2.899-0.064-4.188c0-1.868,0.451-3.802,0.451-5.671
		c0-1.933-0.387-3.995-0.58-5.863c-0.838-1.16-2.385-0.322-3.479-0.966l-0.064-0.322l0.258-1.225l-0.129-0.451
		c0.193-0.902,1.546-0.322,2.19-0.58l0.322,0.129l0.838-0.064l0.902,0.193c0.322-0.064,0.772-0.193,1.095-0.322
		c0.516,0.129,0.902,0.451,1.289,0.838l1.031-0.645h0.773c1.61,0.129,3.157-0.773,4.768-0.773c0.258,0,0.773,0.193,1.031,0.258
		l0.387-0.064c0.193,0,0.322,0.129,0.322,0.387L226.288,38.406z M219.458,73.396c-0.902,0.387-1.16,1.547-1.547,2.32l0.258,0.064
		l0.58-0.645c0.387-0.258,0.838-0.709,0.773-1.16L219.458,73.396z M218.169,46.525c-0.064,1.224-0.193,2.384-0.193,3.608
		c0,0.516,0,0.967,0.129,1.482c0.387-0.451,0.387-1.547,0.387-2.127C218.491,48.459,218.298,47.491,218.169,46.525z M219.522,53.291
		c-0.322,0.451-0.645,1.869-0.645,2.385c0,0.709,0.322,1.417,0.58,2.062c0.129-0.645,0.193-1.288,0.193-1.933
		C219.651,54.967,219.587,54.129,219.522,53.291z M221.52,42.401l-0.193-0.064l-0.322,0.967l0.064,0.838v0.258l0.064-0.064
		l0.773-1.031L221.52,42.401z"/>
	<path fill="#820000" d="M252.255,51.101l-0.386,0.129l-0.645-0.064l-0.322,0.064l-0.516-0.838l0.129-0.387
		c0-0.967-0.838-1.418-0.516-2.514c-0.645-0.257-0.967-0.772-0.902-1.481l-0.773-0.772h-0.192l-0.516-0.451l-0.902-0.193
		l-0.387,0.064c-0.193-0.258-0.58-0.451-0.902-0.516l-0.58,0.193l-1.03-0.193l-0.58,0.258c-0.258,1.03-0.129,1.804-0.129,2.835
		c0,0.386-0.193,2.19-0.58,2.319c0.129,0.773-0.193,1.547-0.193,2.385c0,0.58,0.451,1.03,0.451,1.61
		c0,1.096-0.322,2.191-0.322,3.351c0,1.74,0.645,5.349,0.064,6.702c0.516,1.933-0.451,2.642-0.129,4.188l-0.258,0.58
		c0.064,0.387,0.129,0.772,0,1.159c0.129,1.482-0.193,2.836-0.193,4.317c0,0.773,0.258,1.611,0.516,2.32l-0.064,0.773
		c0.645,0.322,0.838,1.546,1.482,1.353l0.901,0.193c0.129-0.064,0.387-0.193,0.516-0.193l0.322,0.58v0.902l-0.451,0.387
		c-1.61,0-4.188-0.387-5.605,0.129l-0.258-0.064l-0.709-0.58h-0.064l-0.709,0.709c-1.225,0-2.319,0.645-3.544,0.645
		c-0.709,0-1.418-0.193-2.127-0.258c-0.322-0.193-0.322-0.645-0.322-0.902v-0.129c0.258-0.258,0.773-0.322,1.096-0.258
		c0.387-0.193,0.838-0.322,1.289-0.387c0.838-1.418,1.354-0.58,1.354-2.577c0-0.516,0.45-0.902,0.45-1.418
		c0-0.387-0.258-0.838-0.258-1.289c0-1.61,0.322-3.028,0.193-4.704l0.064-0.192c-0.258-0.516-0.321-7.54,0.258-7.798
		c0-0.579,0.193-1.095,0.193-1.675c0-1.418-0.129-3.286-0.322-4.704l0.258-0.516c-0.064-0.58-0.451-3.222-0.708-3.608
		c0.128-0.322,0.257-0.838,0.128-1.225c0.064-0.645,0.387-1.288,0.387-1.997c0-0.967-0.258-1.998-0.322-3.028
		c-0.644-0.193-1.095-0.064-1.675-0.064c-1.16,0-1.096-0.258-2.32,0.193c-0.386,0.322-0.772,0.451-1.224,0.645l-0.902-0.451
		l-0.258,0.837l0.387,0.516c-0.516,1.481-1.289,2.513-1.611,4.188c-0.129,0.451-0.837,0.58-1.288,0.58l-0.451-0.129l-0.064-0.58
		c0.387-0.709-0.064-1.482-0.064-2.255l0.322-0.773v-0.387c0-1.031,0.387-1.933,0.193-3.029c0.516-0.644,0.129-1.611,0.644-2.255
		c0-0.322,0.064-0.837,0.322-1.095l-0.064-0.322c0-0.645,0.258-1.224,0.193-1.804l0.902-0.258l0.709,0.193l-0.129,0.322
		c0,0.516,0.129,1.675,0.838,1.74c0.387,1.16,3.479,1.74,4.511,1.482c2.126,0.451,4.253,0.193,6.379,0
		c0.322,0.129,0.838,0.322,1.225,0.258c0.387-0.645,1.225-0.387,1.868-0.387c2.127,0,4.06,0,5.671-1.74
		c0.064-0.322,0.193-0.902,0.58-1.031l0.838,0.193c0.516,0.902,0.387,3.931,0.709,5.09l-0.322,0.452
		c0.644,1.224,0.387,2.642,0.387,3.995c0,0.772,0.321,1.546,0.386,2.255L252.255,51.101z M228.8,42.788l-0.322,0.902v0.064
		c0.387-0.387,0.773-0.837,1.289-1.031L228.8,42.788z M238.015,43.561l-0.193,0.967l0.193,0.064c0.451,0,0.709-0.516,0.902-0.838
		L238.015,43.561z M238.466,67.274l-0.387,1.933l0.838,2.707L238.466,67.274z M239.755,46.332l-0.387,2.255l0.772-0.708
		L239.755,46.332z M240.592,56.964c0,0.516-0.064,1.031-0.258,1.418l0.193,1.031l-0.064,0.258c0.064,0.129,0.516,0.967,0.58,0.967
		l0.064-0.451C241.172,59.155,240.979,57.995,240.592,56.964z M241.623,44.786l-0.58,2.126v0.064l0.387-0.193l0.193-1.804V44.786z
		 M250.322,42.401l-0.709-0.258l0.838,1.74l0.129-0.773L250.322,42.401z"/>
	<path fill="#820000" d="M281.509,42.272c-0.645,0-0.967,0.645-1.482,0.773l-0.967-0.322l-0.258,0.064l-0.258,0.837l0.258,0.645
		l-0.322,1.031l0.064,0.257l-0.193,0.387c0,1.289-0.451,2.642,0.064,3.866c-0.645,0.902-0.451,3.866-0.708,5.22
		c0.321,0.322,0.386,2.835,0.45,3.415c-0.258,0.58-0.515,1.225-0.515,1.934c0,1.868,0,3.995,0.064,5.928
		c0.192,0.451,0.321,0.902,0.321,1.354c0,0.967-0.193,2.126-0.193,3.157c0,0.645-0.257,1.16-0.772,1.547l0.193,1.739
		c-1.998,2.127-1.031,3.608-4.382,5.993c-1.16,0.322-2.062,1.354-3.352,1.481c-1.868-0.644-3.093,0.451-5.412-1.095l-0.838,0.193
		h-0.129c-1.482-1.225-2.706-1.74-4.188-3.223v-0.192c0.064-1.482-1.74-0.902-1.289-2.578l-0.129-0.322c0-0.322,0-0.838-0.258-1.031
		c-0.128-1.804-0.386-3.544-0.321-5.412c-0.322-0.645-0.387-1.418-0.387-2.127l0.064-1.481c0.129-0.193,0.387-1.869,0.387-2.127
		c0-0.451-0.193-0.838-0.387-1.225c0-0.321,0.193-0.708,0.193-1.03c0-1.225-0.516-1.869-0.258-3.222l-0.322-0.967
		c0.387-0.516,0.709-1.16,0.709-1.805c0-0.516-0.322-1.289-0.516-1.739l0.129-1.225c0.129-2.062-0.129-5.67-0.451-7.732l0.193-0.322
		c-0.193-0.258-0.322-0.645-0.258-0.967c-0.193-0.387-0.387-0.837-0.645-1.16l-0.451-0.322V40.21h-0.193l-0.58,0.258
		c-0.387-0.193-0.902-0.064-1.288,0l-0.516-0.193l0.064-0.064l-0.516-0.773c0.193-0.064,0.967-1.675,3.673-1.095
		c0.451-0.322,1.096-0.322,1.675-0.322c0.902,0,1.676,0.258,2.578,0.322l0.516,0.322c0.258-0.322,0.709-0.516,1.159-0.516
		c0.709,0,1.289,0.516,1.998,0.516c0.193,0,0.451-0.129,0.709-0.193l0.129,0.064l0.387-0.193c0.516,0,0.966-0.129,1.417-0.387
		l1.031,0.193l0.387-0.193l0.258,0.322c0,0.516,0,0.966-0.193,1.417c-0.773,0.129-1.482,0.258-2.191,0.58
		c-0.192,0.516-0.644,0.838-0.772,1.353l-0.193-0.064l-0.258,0.193c0,0.516,0.129,1.096,0.129,1.675
		c0,0.322-0.193,0.838-0.387,1.096c-0.451,2.126-0.451,5.283-0.451,7.475c0,0.451,0.129,0.901,0.451,1.159
		c-0.064,2.256-0.129,4.511-0.129,6.702c0,0.966-0.322,1.933,0.258,2.771c-0.193,0.387-0.258,0.838-0.258,1.289
		c0,1.031,0.322,2.062,0.322,3.028c0,1.225-0.193,5.606-0.516,6.572c0.193,0.838,1.031,3.352,2.255,3.48
		c0.451,0.644,1.418,0.321,1.998,0.837c0.58-0.451,1.547-0.064,2.062-0.708h0.193c0.387,0,1.031-0.258,0.838-0.773l0.387-0.709
		c0.387-0.064,0.773-0.451,0.967-0.709l0.322,0.129c2.964-2.771,2.126-5.349,2.384-8.893c-0.193-0.064-0.451-2.319-0.451-2.642
		c0-0.838,0.322-1.869,0.322-2.771c0-1.16-0.129-2.32-0.322-3.48c0.58-2.062-0.322-10.954-1.224-12.629l-0.773-0.258
		c-0.902-1.032-1.74-1.16-2.965-1.611l-0.257-0.709l0.257-1.031c0.645,0.064,1.354,0.129,1.998,0.129
		c1.547,0,3.028-0.773,4.382-0.773c0.838,0,1.611,0.387,2.448,0.322c1.031,0.322,1.547,0.258,2.643,0.064l0.516,0.58L281.509,42.272
		z M258.439,45.816c0,0.129,0.064,0.322,0.129,0.451c0.645-0.516,0.322-1.417,0.58-2.126
		C258.826,44.657,258.439,45.173,258.439,45.816z M259.02,52.39L258.826,54c0.258-0.322,0.451-0.645,0.451-1.096L259.02,52.39z
		 M259.6,72.881v0.45c-0.064,0.645,0.193,1.289,0.451,1.869c0.064,0,0.064-0.064,0.064-0.129c0-0.516,0.322-0.967,0.322-1.418
		C260.244,73.331,259.922,73.01,259.6,72.881z M260.824,59.542c0,0.58-0.129,1.096-0.129,1.675l0.129,0.838
		c0.129-0.58,0.322-1.031,0.644-1.481L260.824,59.542z M261.726,55.676c0.064,0.258-0.193,0.967-0.193,1.288l0.129,0.322
		l0.387-1.481L261.726,55.676z M261.661,69.143l0.773,2.385l0.258-1.031L261.661,69.143z M262.435,77.326
		c0,0.193,0.129,0.516,0.193,0.773c-0.064-0.645,0.516-1.353,0.645-1.997C262.886,76.425,262.435,76.747,262.435,77.326z
		 M265.527,78.873c0.193,0.58,0.322,1.418,1.16,1.418c0.58,0,1.225-0.258,1.74,0C267.461,79.775,266.365,79.582,265.527,78.873z
		 M274.227,43.239c0.322,0.773,0.58,1.74,1.16,2.319C275,44.786,275.387,43.432,274.227,43.239z M275.838,62.699h-0.129
		c0.064,1.096-0.258,2.642,0.129,3.673C276.096,65.147,275.902,63.924,275.838,62.699z M276.225,49.231
		c-0.129,0.516-0.193,1.031-0.258,1.547c0.193-0.322,0.322-0.709,0.387-1.096L276.225,49.231z"/>
	<path fill="#820000" d="M302.707,72.301c-0.322,0.387,0,1.095-0.58,1.224c-0.258,0.645-0.322,1.418-0.709,1.998v0.193
		c0.064,1.225-2.642,4.575-3.802,4.704l-0.451-0.193c-1.289,0.645-2.577,1.546-4.124,1.546c-2.384,0-3.093-1.095-4.769-2.448
		c-0.838-0.258-1.546-0.902-2.513-0.902l-0.967,0.451c-0.258,1.289-0.322,2.514-0.516,3.802l-0.58,0.451
		c-1.03,0-0.773-1.418-0.709-1.997l-0.321-0.902c0.129-0.258,0-0.645-0.064-0.902l0.386-0.451c-0.064-0.967-1.03-1.675-0.966-2.706
		v-0.129l0.258-0.387l0.258-3.866l-0.064-0.258c0.193-0.967-0.064-2.899-0.58-3.802c0.129-0.645-0.193-1.354-0.193-2.062
		c0-0.837,0.773-0.129,1.417-0.966c0.387,1.224,0.902,2.706,0.902,3.995c0,0.644,0.516,1.546,0.902,2.126l-0.064,0.193l0.322,1.096
		l0.516,0.193c0.387,1.224,0.838,2.448,1.933,3.157l0.451,0.967c0.838,0.516,1.805,0.838,2.578,1.481l0.644,0.129
		c1.354,0,2.127-1.353,3.158-1.933c0.129-0.451,1.288-0.258,1.03-0.838l0.322-0.58l0.064-1.096c0-1.095-0.193-2.255-0.516-3.351
		c0.064-0.387,0.193-0.838,0.516-1.16c-0.258-0.966-0.516-3.028-0.709-4.188c-0.128,0-1.546-2.191-2.835-2.514
		c-3.157-0.645-6.314-3.286-8.312-5.799c-1.675-0.838-0.967-1.031-0.967-2.578l-0.064-0.516l-0.772-0.58
		c-0.129-1.03-0.129-1.997-0.258-3.028l0.064-0.129c-0.129-0.58-0.064-1.353,0.129-1.933c0.451-0.259,0.645-0.773,0.966-1.225
		l-0.064-0.645h-0.129l-0.45,0.129l-0.193-0.064l-0.064-0.387c0.837-2.642,2.964-6.508,6.314-5.928
		c1.418-0.902,1.74-1.998,4.317-1.998c0.258,0,0.838,0.193,1.096,0.387l0.193-0.064l0.58,0.129c0.193,0.709,0.966,0.709,1.546,0.902
		c0.387,0.451,0.709,0.966,1.354,0.966c1.868,0,1.868-3.222,2.706-4.06c0.322,0.258,0.902,0.258,1.16,0.645
		c0.064,1.998-0.709,3.931-0.709,5.928c0,2.514,0.129,5.09,0.387,7.668l-1.225,0.967c-0.772-0.064-0.901-3.737-1.159-4.511
		c-0.58-0.709-0.967-1.031-0.645-1.997c-0.322-0.451-0.902-0.451-1.354-0.709c-0.516-1.095-1.289-2.384-2.706-2.32
		c-0.322-0.193-0.773-0.515-1.225-0.515c-0.129,0-0.322,0.128-0.451,0.128c-0.258,0.451-0.516,0.967-0.967,1.289h-0.193
		c-0.837-0.064-0.837,0.709-0.644,1.353c-0.645,1.29-1.547,2.707-1.547,4.253c0,0.386,0.064,0.837,0.193,1.159
		c-0.193,0.838,0.387,1.482,0.516,2.32c0.709,1.224,2.255,2.255,3.415,3.093l-0.064,0.193l0.193,0.387
		c0.258,0.064,0.967-0.129,1.225-0.129l0.58,0.322h1.095c1.611-0.129,1.225,1.675,3.222,1.997c0.58,0.387,0.258,1.16,0.709,1.611
		c0.58,1.547,1.74,2.255,2.385,5.478l0.193,0.064l0.064,0.45c0.064,0.967-0.322,1.934-0.645,2.836
		c0.258,0.645,0.387,1.353,0.838,1.868C302.9,70.625,302.643,71.463,302.707,72.301z M283.633,73.911
		c-0.193,0.773-0.451,1.482-0.451,2.256l0.064,0.58h0.193c0.258-0.516,0.773-0.902,0.838-1.418
		C284.148,74.813,283.568,74.491,283.633,73.911z M286.791,45.688l-0.709-0.45l-0.387,0.386c-0.193,1.225-0.709,2.385-1.031,3.673
		c0.387-0.773,1.418-2.771,2.191-3.157L286.791,45.688z M287.692,53.742l-0.258,1.16c0.258,0.387,0.58,0.773,0.967,1.031l0.258-0.58
		C288.659,54.709,287.95,54.322,287.692,53.742z M291.494,39.244c-1.03,0.387-1.933,0.967-2.771,1.611
		c1.482-0.064,2.706-1.16,4.188-1.354L291.494,39.244z M290.979,59.349l-0.387,0.193c-0.193-0.064-0.709-0.193-0.838-0.129
		c0.258,0.387,0.773,0.516,1.225,0.709l-0.129-0.193l0.193-0.451L290.979,59.349z M296.005,58.575l-0.709,0.064
		c0.451,0.516,0.773,1.096,1.418,1.418v-0.064C296.392,59.542,296.069,59.026,296.005,58.575z M295.618,78.551l0.645,0.387h0.064
		l1.225-1.289L295.618,78.551z M298.647,41.757h-0.129l-0.58,0.193l0.645,0.387h0.064l0.064-0.516L298.647,41.757z M298.776,64.182
		l-0.387-0.193c0.064,0.773-0.064,1.546-0.064,2.384c0,0.387,0,0.773,0.129,1.16c0.322-0.387,0.451-0.838,0.451-1.354
		C298.905,65.534,298.712,64.891,298.776,64.182z"/>
</g>
<g>
	<path fill="#2D0A05" d="M85.604,33.532c0,0,1.195-0.597,0.924-2.934c-0.163-2.173-2.391-2.391-3.912-2.228
		c1.521-1.684,2.5-14.994-10.974-15.917c-7.987-0.326-10.594,6.194-10.594,6.194s-2.609-6.9-10.649-6.14
		c-8.041,0.762-13.256,9.508-8.041,17.059c-2.283-0.488-7.986-3.148-9.182-2.118c-1.194,1.032-2.607,4.021-2.988,7.061
		c-0.271,1.958,3.584,2.608,4.673,0.815c1.087-1.792,3.206-1.195,4.889-0.325c-0.325,2.661,0.325,4.347-0.543,6.412
		c-0.597,4.725-8.911,13.039-9.183,17.33c-0.271,4.29,2.229,9.181,6.575,12.225c-1.466,2.117-1.683,4.78-0.923,6.193
		c-3.368-2.499-9.726-8.965-6.52-13.908c1.63-2.935-1.521-7.119-3.422-6.192c-2.228,0.813,0.651,5.756-3.804,4.617
		c-4.889-2.882,2.77-5.541-1.63-8.259c-3.64-1.52-9.67,6.139-9.073,11.355c0.598,5.217,5.976,8.585,8.258,9.125
		c-0.869,5.271,7.931,14.234,12.658,16.895c-0.434,1.198,0.217,2.394,0.217,2.394s-10.43-3.206-15.864,7.662
		c-4.183-0.928-6.683-8.805-3.965-9.834c-4.455-1.251-10.104,5.484-7.388,13.527c2.662,7.062,9.454,7.659,10.431,7.766
		c0.868,3.426,4.02,11.247,15.32,11.031c9.616-0.109,12.93-5.707,12.93-5.707s5.595,9.184,23.579,9.453
		c19.525,0.436,39.969-19.412,25.587-35.699c2.022-0.832,3.329-4.396,2.14-5.703c3.447,0,8.44-3.451,9.985-7.848
		c0,11.649,0.238,34.233,0.238,34.233l6.062-0.118c0,0-0.594-28.885-0.475-33.996c4.042,0.238,14.146-9.983,2.021-20.324v-2.26
		l2.258-4.161l-0.119-8.439l-8.083-4.635l-7.25,5.944l0.238,5.467l2.376,6.18l0.238,1.666c0,0-2.258,0.712-3.09,4.041
		c-0.833,3.327-0.119,3.446-0.119,3.446s-1.545,6.3-6.181,8.559c1.069-1.782,0.356-3.685,0.356-3.685s4.161-3.208,4.042-10.104
		c0-9.389-11.172-13.904-12.124-18.66C87.286,37.777,86.182,34.042,85.604,33.532z"/>
	<path fill="#2D0A05" d="M81.938,32.786L69.22,33.379c0,0-2.14,9.984,6.774,9.984C84.909,43.364,81.938,32.786,81.938,32.786z"/>
	<path fill="#FFFFFF" d="M76.55,33.037l3.011,2.007l-3.208-0.714l3.684,2.377l-4.042-0.594l4.398,3.33l-2.496-0.238l3.082,2.175
		c-0.096,0.114-0.192,0.229-0.301,0.336l-8.011-2.156l2.853-0.474l-4.279-2.616l2.973,0.357l-3.329-2.616l2.02,0.238l-1.311-1.181
		L76.55,33.037z"/>
	<path fill="#2D0A05" d="M56.501,32.667L43.783,33.26c0,0-2.14,9.985,6.774,9.985C59.472,43.245,56.501,32.667,56.501,32.667z"/>
	<path fill="#FFFFFF" d="M51.113,32.918l3.01,2.007l-3.209-0.714l3.684,2.378l-4.042-0.597l4.399,3.331l-2.497-0.238l3.082,2.174
		c-0.095,0.117-0.193,0.228-0.3,0.336l-8.012-2.154l2.853-0.476l-4.279-2.616l2.972,0.356l-3.328-2.614l2.021,0.237l-1.312-1.181
		L51.113,32.918z"/>
	<path fill="#FFFFFF" d="M40.331,30.14c0,0-6.031-2.351-6.651-1.996c-0.622,0.356-2.44,3.947-2.352,4.88
		c0.355-1.108,1.907-4.082,2.484-4.347c-0.355,0.532-0.488,0.977-0.488,0.977l0.444-0.4l0.133,0.4l0.222-0.666l0.886,0.442
		l-0.531-0.621l0.665,0.044l-0.577-0.308C34.565,28.545,38.823,29.564,40.331,30.14z"/>
	<path fill="#FFFFFF" d="M63.304,34.178c-0.066,0.123,0.222-3.772-1.597-4.348c-1.817-0.577-2.66,0.444-2.483,2.085
		c0.178,1.641,1.419,1.775,1.908,3.458c0.488,1.686,0,2.484,0.753,2.794c0.754,0.312,1.374-2.439,0.444-3.813
		c1.153,0.487,1.196,2.172,1.064,3.06c0.044,0.841,1.153,0.443,1.552-0.844c0.397-1.284,2.173-4.789,0.709-6.385
		c-1.419-1.332-1.951,0.267-1.951,0.267S64.325,32.269,63.304,34.178z"/>
	<polygon fill="#E80000" points="112.648,43.218 107.285,40.399 102.698,44.139 106.579,45.548 	"/>
	<polygon fill="#E80000" points="113,44.421 111.448,48.514 110.178,45.76 	"/>
	<polygon fill="#820000" points="113.636,45.831 113.283,49.783 111.308,50.63 108.202,50.983 108.978,46.043 111.519,49.641 	"/>
	<polygon fill="#820000" points="106.791,51.053 106.931,46.751 103.897,49.569 101.569,45.126 101.499,49.641 103.827,50.701 	"/>
	<polygon fill="#E80000" points="105.873,46.608 103.969,48.372 102.628,45.336 	"/>
	<path fill="#D0C200" d="M112.648,51.688l-3.952,1.201l0.705,1.056c0,0-1.834,6.919-1.976,6.706
		c-0.14-0.211-1.411-6.563-1.411-6.563l0.776-1.481l-4.304-1.271l1.694,3.67l0.634,2.893c0,0,1.977,1.693,1.554,4.939
		c1.623,0.847,4.304-0.14,4.446-2.894c0.14-2.751-0.071-4.729-0.071-4.729L112.648,51.688z"/>
	<path fill="#FEC700" d="M80.03,19.041c-3.303-5.049-8.913-5.049-12.28-3.429c-3.615,1.497-7.979,5.737-5.549,10.849
		c-0.935-0.437-0.935-0.562-1.371-1.559c-0.374,1.246-1.247,1.122-1.247,1.122s1.745-3.242-0.623-6.67
		c-2.369-3.429-10.101-7.232-15.586,0.187c-3.49,5.924,0.998,10.161,0.998,10.161l14.09-0.185c0,0,0.809-2.434,4.363,0
		c1.496-0.874,2.121-0.937,2.93-0.499c0.811,0.435,0.811,0.435,0.811,0.435l13.715-0.933C80.28,28.519,83.335,24.091,80.03,19.041z"
		/>
	<path fill="#E88B00" d="M43.25,26.538c-0.792-3.7,2.292-11.283,9.432-9.344c7.495,2.116,6.7,8.638,5.995,10.402
		c1.234,0.089,2.556-1.5,2.556-1.5s0.529,1.235,2.292,1.41c-2.129-2.676,0.793-9.166,4.936-10.577
		c4.143-1.41,9.873,1.499,10.49,5.908c0.617,4.405-2.41,5.934-2.412,5.934l-9.974,0.68c0,0,0,0-0.811-0.435
		c-0.81-0.438-1.434-0.375-2.93,0.499c-3.554-2.434-4.363,0-4.363,0l-13.71,0.182C44.167,29.046,43.577,28.053,43.25,26.538z"/>
	<path fill="#2D0A05" d="M51.01,18.106c3.806,0,6.89,2.973,6.89,6.64c0,1.892-0.825,3.596-2.144,4.805l-9.349,0.125
		c-1.4-1.216-2.285-2.97-2.285-4.93C44.123,21.079,47.206,18.106,51.01,18.106z"/>
	<path fill="#FFFFFF" d="M45.12,25.369c0-2.841,2.512-5.144,5.61-5.144s5.611,2.303,5.611,5.144c0,1.739-0.946,3.275-2.388,4.206
		l-6.315,0.083C46.12,28.738,45.12,27.161,45.12,25.369z"/>
	<path fill="#2D0A05" d="M49.961,20.28c0.251-0.034,0.506-0.055,0.769-0.055c0.47,0,0.924,0.059,1.361,0.159
		c0.727,0.402,1.521,1.13,1.88,2.46c-1.994-0.187-2.866,2.93-0.872,3.677c0.063,1.434-2.057,2.994-2.057,2.994
		s-2.306-0.376-3.367-4.428C47.167,22.798,48.652,21.047,49.961,20.28z"/>
	<path fill="#2D0A05" d="M71.022,18.168c3.806,0,6.889,2.972,6.889,6.641c0,1.487-0.513,2.858-1.372,3.962l-9.974,0.68
		c0,0,0,0-0.811-0.435c-0.03-0.019-0.062-0.029-0.094-0.045c-0.954-1.138-1.526-2.585-1.526-4.163
		C64.134,21.141,67.217,18.168,71.022,18.168z"/>
	<path fill="#FFFFFF" d="M70.742,20.289c3.099,0,5.611,2.303,5.611,5.142c0,1.332-0.557,2.542-1.461,3.455l-7.705,0.524
		c-1.254-0.944-2.057-2.376-2.057-3.979C65.13,22.591,67.643,20.289,70.742,20.289z"/>
	<path fill="#2D0A05" d="M72.102,20.447c0.727,0.403,1.522,1.128,1.881,2.461c-1.995-0.188-2.866,2.929-0.871,3.676
		c0.041,0.952-0.876,1.955-1.499,2.524l-1.406,0.095c-0.769-0.484-1.873-1.585-2.52-4.053c-0.509-2.292,0.977-4.041,2.286-4.808
		c0.251-0.033,0.507-0.054,0.769-0.054C71.212,20.289,71.666,20.349,72.102,20.447z"/>
	<polygon fill="#FFFFFF" points="70.782,22.215 70.598,21.299 70.415,22.095 70.305,21.974 69.864,21.482 69.375,22.156 
		70.109,22.523 69.313,23.012 70.109,23.197 70.109,23.931 70.476,23.135 70.965,23.562 70.843,22.766 71.699,22.338 71.21,22.156 
		71.394,21.544 	"/>
	<polygon fill="#FFFFFF" points="50.286,22.4 50.102,21.482 49.917,22.279 49.811,22.156 49.369,21.665 48.879,22.338 
		49.613,22.707 48.817,23.197 49.613,23.38 49.613,24.113 49.979,23.317 50.468,23.747 50.347,22.95 51.204,22.523 50.715,22.338 
		50.897,21.729 	"/>
	<path fill="#FFFFFF" d="M76.339,46.683c0.178,0.006-2.794,0.619-6.345-1.865c-2.218-1.863-2.839-4.526-2.839-4.526
		s1.774,4.125,3.86,4.615c0.088-0.798,1.11,0,0.844,0.356c0.887,0.441,3.15,0.664,4.569,0.088c-0.887,0.755-3.061,0.576-3.061,0.576
		S74.253,46.594,76.339,46.683z"/>
	<path fill="#FFFFFF" d="M51.908,47.241c-0.177,0.016,2.821,0.492,6.252-2.152c2.13-1.964,2.629-4.653,2.629-4.653
		s-1.583,4.206-3.644,4.788c-0.126-0.795-1.109,0.054-0.826,0.395c-0.866,0.484-3.117,0.809-4.56,0.299
		c0.92,0.713,3.083,0.436,3.083,0.436S53.987,47.057,51.908,47.241z"/>
	<path fill="#FEC700" d="M83.326,44.433c0,0-2.349,3.062-7.863,2.857c-8.883,0-7.556-7.555-10.416-7.964
		c-1.736-0.104-3.166-0.408-3.778,1.734c0,0-0.409,6.946-10.621,7.252c-6.637-0.204-7.965-4.594-7.965-4.594s-6.119,8-8.549,12.706
		c-2.519,3.732,0.481,15.987,12.226,17.621c-3.37,2.044-6.332,0-7.046-0.409c-1.43,1.432-1.431,6.843,3.063,8.581
		c-5.718-0.205-13.071-5.005-15.624-12.87c-2.042-3.473,2.655-8.167,0-9.905c-1.43-1.124,0,6.231-5.105,4.598
		c-6.74-2.249-0.409-8.477-3.167-8.579c-2.757-0.103-10.518,16.034,7.659,18.891c-1.635,1.635-2.962,1.024-2.962,1.024
		s2.35,10.107,9.804,12.148c0-1.121,1.839-2.041,1.839-2.041s-2.248,12.865,10.211,16.033c-1.429,2.552-7.046,0.919-11.948-5.108
		c-4.596-4.696-15.623,2.352-16.543,7.457c-3.573-1.328-7.25-5.926-6.637-8.377c-5.107,0.92-4.902,16.239,10.926,15.219
		c0,0-0.307,0.918-2.655,1.632c1.94,5.104,4.187,8.372,12.867,8.577c8.68,0.204,12.969-7.042,13.376-9.394
		c0.818,1.022,0.716,2.042,0.716,2.042s6.433,10.826,24.711,9.395c20.526-0.817,30.227-20.729,20.424-29.818
		c-1.532,1.226-2.655,0.714-2.655,0.714s5.82-4.287,4.8-9.188c-1.021,0.817-2.961-0.716-2.961-0.716s13.378-1.938,14.091-11.844
		c1.84,0.713,2.35,3.878,2.35,3.878s6.638,2.758,9.905-5.718c2.042-5.003-2.552-8.68-2.552-8.68s-1.329,5.617-8.272,3.575
		c-1.328,1.632-2.451,1.123-2.451,1.123s3.063-3.167,2.451-5.614c-0.612-2.453-2.961-1.229-3.677,1.225
		c-0.714,2.448,0.613,6.942,1.838,8.27c-1.634-0.409-2.35-2.042-2.35-2.042s-2.859,5.819-8.577,7.861
		c-1.633,2.046-2.858,2.147-2.858,2.147s2.552-3.27,1.327-6.537c-3.575,2.451-8.169,1.329-8.169,1.329s11.845-2.249,11.743-12.358
		S83.326,44.433,83.326,44.433z"/>
	<g>
		<path fill="#E88B00" d="M50.076,81.816c-2.534,1.519-5.62,1.159-8.037,0.377c0.111,0.007,0.226,0.018,0.337,0.023
			c-4.494-1.738-4.493-7.149-3.063-8.581c0.714,0.409,3.676,2.453,7.046,0.409c-0.638,2.11-4.883,2.653-4.883,2.653
			S43.436,82.142,50.076,81.816z"/>
		<path fill="#E88B00" d="M34.133,56.424c2.431-4.705,8.549-12.706,8.549-12.706s1.329,4.39,7.965,4.594
			c10.212-0.306,10.621-7.252,10.621-7.252c0.612-2.142,2.042-1.838,3.778-1.734c2.859,0.409,1.532,7.964,10.416,7.964
			c5.515,0.205,7.863-2.857,7.863-2.857s10.825,6.022,10.927,16.132c0.088,8.629-8.521,11.528-11.049,12.193
			c1.435-0.784,8.646-5.044,8.351-11.518c-0.326-7.187-3.918-11.323-7.948-13.392c-2.612,1.417-9.362,3.484-13.171,1.198
			c-4.354-1.959-5.444-5.989-8.928-2.068c-3.483,3.92-8.273,4.571-12.519,3.485c-4.247-1.091-6.532-3.049-6.532-3.049
			s-8.166,8.927-6.859,14.262c1.306,5.333,6.717,11.24,10.761,12.368C34.615,72.411,31.614,60.156,34.133,56.424z"/>
		<path fill="#E88B00" d="M83.014,73.019c1.286,0.207,4.8,0.538,7.665-1.425c1.225,3.268-1.327,6.537-1.327,6.537
			c-2.914,1.833-6.724,0.746-6.724,0.746s5.443-0.981,5.987-3.92C86.199,76.009,83.584,74.221,83.014,73.019z"/>
	</g>
	<path fill="#2D0A05" d="M87.736,56.767c0,0-2.537-7.61-8.604-6.84c-6.068,0.772-7.722,6.729-17.981,6.396
		c-10.257-0.329-14.228-8.051-19.303-4.632c-5.073,3.42-5.956,14.452,4.743,19.303c12.355,5.957,26.584,7.169,36.181-2.204
		C89.39,61.729,87.736,56.767,87.736,56.767z"/>
	<path fill="#FFFFFF" d="M85.087,59.304c0,0,0.22-5.514-5.515-5.845c0.221,5.732,0.441,14.447,0.441,14.447
		S84.315,65.26,85.087,59.304z"/>
	<path fill="#FFFFFF" d="M77.687,69.274c0.2-3.199-1.2-12.799-1.1-15.099c-1,1.102-8.486,3.916-8.486,3.916l0.112,14.117
		C68.212,72.209,75.586,71.674,77.687,69.274z"/>
	<path fill="#FFFFFF" d="M65.343,72.318l0.332-13.677c0,0-6.288,1.101-8.825,0.112c0.221,4.188,0,13.016,0,13.016
		S61.813,73.312,65.343,72.318z"/>
	<path fill="#FFFFFF" d="M54.424,71.106l0.109-12.245c0,0-4.854-1.984-6.177-3.528c-0.22,4.521-0.331,13.016-0.331,13.016
		S50.673,70.886,54.424,71.106z"/>
	<path fill="#FFFFFF" d="M45.93,67.468l0.441-12.907c0,0-4.413-1.765-4.854,2.868C41.076,62.061,43.502,65.48,45.93,67.468z"/>
	<path fill="#2D0A05" d="M84.646,90.961c0,0-0.772,3.75-5.957,3.417C81.558,96.917,86.631,95.262,84.646,90.961z"/>
	<path fill="#2D0A05" d="M53.32,96.253c0,0-4.081,0.775-6.287-2.535C46.812,96.478,49.349,100.117,53.32,96.253z"/>
	<path fill="#FFFFFF" d="M18.905,108.059c0,0-2.647,0.771-5.184-1.875c1.102-0.884-0.331-3.31-1.764-2.316
		c-2.208-0.223-2.428-5.517-2.428-5.517s-2.204,4.304,1.214,8.273C14.162,110.594,18.353,109.161,18.905,108.059z"/>
	<path fill="#E88B00" d="M39.091,103.424c0,0-1.545-0.438-3.42-2.756s-12.795-5.847-15.772,3.418
		c3.087-2.867,6.838-2.426,6.838-2.426s3.641,3.64,5.074-0.331C35.12,100.447,36.994,105.852,39.091,103.424z"/>
	<path fill="#E88B00" d="M41.187,112.58c0,0-1.214,6.62-10.148,6.288c-6.618-0.332-8.714-4.855-8.714-4.855s4.302,2.87,6.729,2.098
		c1.874-2.098,4.082-1.873,5.294-0.109C37.216,117.433,41.187,112.58,41.187,112.58z"/>
	<path fill="#E88B00" d="M88.506,95.703c-0.268-0.193,2.427,11.584-9.265,18.424c-1.434-2.759-5.406-1.547-5.957,1.32
		c-4.964,3.089-17.979,2.097-24.156-1.875c1.985,4.635,18.311,10.701,30.885,3.642C92.588,110.153,93.14,99.012,88.506,95.703z"/>
	<path fill="#E88B00" d="M76.925,75.407c0,0-2.056,8.062-14.1,8.615c1.603,1.604,5.917,0.423,5.917,0.423s-2.922,2.225-9.397,1.528
		c-3.898,0.07-6.822-2.087-8.076-3.343c3.063,1.744,6.057,2.022,8.355,0.977c0,0-10.27-2.347-9.833-8.31
		c1.827,2.253,7.327,4.968,14.567,4.482C71.598,79.291,75.36,77.58,76.925,75.407z"/>
	<path fill="#2D0A05" d="M76.925,75.407c0,0-10.589,8.604-27.134-0.109c0.882,4.962,11.912,6.51,14.669,6.284
		C67.219,81.364,73.615,81.695,76.925,75.407z"/>
	<path fill="#FFFFFF" d="M113.854,63.281c0,0,3.226,3.932,0.152,8.723c-2.824,3.78-6.252,3.729-7.059,3.577
		c1.765-0.253,5.494-1.863,6.352-3.983c-0.857,0.455-1.512,0.808-1.512,0.808l1.562-1.462l-1.562-0.252l1.411-0.303l-1.411-1.512
		l1.814,1.158l-0.352-1.712l1.057,1.509C114.308,69.832,115.417,66.607,113.854,63.281z"/>
	<path fill="#FFFFFF" d="M17.315,57.281c0,0-3.479,4.941-1.21,10.89c1.765,4.486,9.83,5.596,9.83,5.596s-5.242-1.109-7.662-3.58
		c1.561,0.657,2.268,0.607,2.268,0.607l-2.923-1.615l2.116,0.052l-1.964-0.557l1.662-1.007l-1.662,0.402l0.705-1.863l-0.856,1.208
		l-0.354-2.57l-0.755,2.471C16.509,67.314,14.844,63.684,17.315,57.281z"/>
	<polygon fill="#E80000" points="105.633,39.704 104.436,37.737 104.137,39.375 102.342,38.83 103.738,40.03 100.349,41.011 
		103.239,41.121 102.84,43.085 103.937,41.776 104.335,44.071 105.233,41.885 107.328,42.43 105.633,41.121 109.021,40.902 
		106.729,40.466 108.124,38.83 	"/>
	<path fill="#E88B00" d="M70.936,111.014c0,0-0.908,0.005-1.028,0.551c-0.12,0.548-0.979,1.71-1.723,1.435
		c-0.742-0.28-1.05-1.498-1.807-1.062c-0.06-1.422,1.031-2.074,1.667-1.961C68.68,110.088,70.602,110.251,70.936,111.014z"/>
	<path fill="#2D0A05" d="M70.969,111.257c0,0-0.552-2.315-2.869-2.315c-2.316,0-2.096,2.866-2.096,2.866s0.773-1.214,1.214-1.102
		c0.109,1.432,2.205,0.771,1.875-0.11C70.197,110.374,70.969,111.257,70.969,111.257z"/>
	<polygon fill="#FFFFFF" points="106.432,79.202 106.598,110.547 107.262,95.25 107.679,100.985 108.177,88.515 107.43,93.586 
		107.596,85.27 107.18,88.682 	"/>
	<polygon fill="#FFFFFF" points="106.074,40.544 105.018,38.844 104.754,40.261 103.17,39.788 104.402,40.826 101.411,41.679 
		103.963,41.771 103.61,43.473 104.578,42.339 104.93,44.323 105.721,42.433 107.569,42.906 106.074,41.771 109.063,41.582 
		107.041,41.206 108.272,39.788 	"/>
</g>
</svg>
